<?xml version="1.0" encoding="UTF-8"?>
<svg version="1.1" xmlns="http://www.w3.org/2000/svg" width="1254" height="1254">
<path d="M0 0 C413.82 0 827.64 0 1254 0 C1254 413.82 1254 827.64 1254 1254 C840.18 1254 426.36 1254 0 1254 C0 840.18 0 426.36 0 0 Z " fill="#5E3DE3" transform="translate(0,0)"/>
<path d="M0 0 C413.82 0 827.64 0 1254 0 C1254 413.82 1254 827.64 1254 1254 C840.18 1254 426.36 1254 0 1254 C0 840.18 0 426.36 0 0 Z M582 13 C580.43710695 13.13312771 578.86875213 13.20337406 577.30078125 13.24609375 C576.33849609 13.27896484 575.37621094 13.31183594 574.38476562 13.34570312 C572.35621627 13.40631458 570.32756672 13.46367127 568.29882812 13.51757812 C563.10207327 13.70083029 558.91845477 14.20827719 554 16 C550.44425515 16.35197474 546.90899391 16.50123805 543.33984375 16.65625 C540.11399357 16.98826733 537.97219307 17.79807866 535 19 C532.73703593 19.28121242 530.46369338 19.48704889 528.1875 19.625 C526.44533203 19.73714844 526.44533203 19.73714844 524.66796875 19.8515625 C523.34732422 19.92503906 523.34732422 19.92503906 522 20 C522 20.66 522 21.32 522 22 C518.7 22 515.4 22 512 22 C512 22.66 512 23.32 512 24 C511.28714844 23.97679687 510.57429688 23.95359375 509.83984375 23.9296875 C504.11608456 23.82183739 499.48778112 24.20591771 494 26 C491.66742506 26.33859959 489.33425788 26.6732039 487 27 C486.67 27.33 486.34 27.66 486 28 C483.34536879 28.45459858 480.67810862 28.70243238 478 29 C478 29.66 478 30.32 478 31 C476.865625 30.979375 475.73125 30.95875 474.5625 30.9375 C471.18424326 30.58422523 471.18424326 30.58422523 470 32 C468.865625 32.144375 467.73125 32.28875 466.5625 32.4375 C462.95941003 32.64847551 462.95941003 32.64847551 461 35 C458.67145135 35.36526253 456.33701038 35.69350684 454 36 C451.6368615 36.59078462 449.33050743 37.28657936 447 38 C447 38.66 447 39.32 447 40 C446.39414062 40.02578125 445.78828125 40.0515625 445.1640625 40.078125 C439.43908496 40.46566194 434.82582728 41.61707942 429.5703125 43.890625 C421.05733167 47.56492068 412.02765125 50.83901861 403 53 C403 53.66 403 54.32 403 55 C401.02 55.33 399.04 55.66 397 56 C397 56.66 397 57.32 397 58 C395.35 58 393.7 58 392 58 C392 58.66 392 59.32 392 60 C388.535 60.495 388.535 60.495 385 61 C385 61.66 385 62.32 385 63 C383.824375 63.0928125 383.824375 63.0928125 382.625 63.1875 C378.429976 64.127764 375.13767958 65.82342403 371.3671875 67.84375 C369.22313059 68.89101212 367.32842053 69.52787787 365 70 C365 70.66 365 71.32 365 72 C364.43023437 72.12632813 363.86046875 72.25265625 363.2734375 72.3828125 C357.24774717 74.01865283 351.53175702 77.16320153 346 80 C346 80.66 346 81.32 346 82 C345.13375 82.0825 344.2675 82.165 343.375 82.25 C339.45037903 83.12213799 337.25923847 84.67197252 334 87 C328.08247444 90.48089739 322.03410695 93.72652426 316 97 C316 97.66 316 98.32 316 99 C312.535 99.99 312.535 99.99 309 101 C309 101.66 309 102.32 309 103 C308.40977051 103.12383057 307.81954102 103.24766113 307.21142578 103.37524414 C303.7183948 104.36206974 300.87791904 106.45928838 297.875 108.4375 C297.24207031 108.84548828 296.60914063 109.25347656 295.95703125 109.67382812 C293.43767093 111.31328447 291.13123543 112.86876457 289 115 C286.875 115.625 286.875 115.625 285 116 C285 116.66 285 117.32 285 118 C284.34 118 283.68 118 283 118 C283 118.66 283 119.32 283 120 C281.02 120.66 279.04 121.32 277 122 C277 122.66 277 123.32 277 124 C276.443125 124.268125 275.88625 124.53625 275.3125 124.8125 C271.72399349 126.65524658 268.35510946 128.76326036 265 131 C265 131.66 265 132.32 265 133 C264.46375 133.2475 263.9275 133.495 263.375 133.75 C260.42982839 135.30009032 257.74179131 137.11501848 255 139 C253.824375 139.804375 253.824375 139.804375 252.625 140.625 C252.08875 141.07875 251.5525 141.5325 251 142 C251 142.66 251 143.32 251 144 C250.34 144 249.68 144 249 144 C249 144.66 249 145.32 249 146 C248.46375 146.2475 247.9275 146.495 247.375 146.75 C242.09601193 149.52841477 237.41071464 153.00935342 233 157 C233 157.66 233 158.32 233 159 C232.34 159 231.68 159 231 159 C231 159.66 231 160.32 231 161 C230.34 161 229.68 161 229 161 C229 161.66 229 162.32 229 163 C226.03 163.99 226.03 163.99 223 165 C223 165.66 223 166.32 223 167 C222.34 167 221.68 167 221 167 C221 167.66 221 168.32 221 169 C220.34 169 219.68 169 219 169 C219 169.66 219 170.32 219 171 C218.34 171 217.68 171 217 171 C217 171.66 217 172.32 217 173 C215.02 173.99 215.02 173.99 213 175 C213 175.66 213 176.32 213 177 C212.34 177 211.68 177 211 177 C211 177.66 211 178.32 211 179 C210.34 179 209.68 179 209 179 C209 179.66 209 180.32 209 181 C208.38125 181.2475 207.7625 181.495 207.125 181.75 C204.64931313 183.20628639 204.04874998 184.37812506 203 187 C202.34 187 201.68 187 201 187 C199.64613064 188.65002828 198.31321858 190.3174387 197 192 C196.34 192.33 195.68 192.66 195 193 C195 193.66 195 194.32 195 195 C194.34 195 193.68 195 193 195 C191.5676722 196.41647671 191.5676722 196.41647671 190.0625 198.3125 C186.13244995 202.96236975 181.82852611 207.16409003 177.453125 211.38671875 C175.16350646 213.82581876 173.67738621 216.13115562 172 219 C170.81220261 220.26918822 169.58356223 221.5017082 168.3125 222.6875 C166.46034321 224.37212664 166.46034321 224.37212664 165 226 C165 226.66 165 227.32 165 228 C164.34 228 163.68 228 163 228 C160.8735612 229.68343072 160.01547262 230.96131844 159 233.5 C157.98150275 236.04624312 156.94361106 237.14473489 155 239 C155 239.66 155 240.32 155 241 C154.34 241 153.68 241 153 241 C153 241.66 153 242.32 153 243 C152.01 243.33 151.02 243.66 150 244 C149.30341637 245.65438613 148.63903117 247.32254318 148 249 C147.02149805 250.02104551 146.02019573 251.0206121 145 252 C144.525625 252.804375 144.05125 253.60875 143.5625 254.4375 C141.96178367 257.06267478 140.16444598 258.83555402 138 261 C136.98812105 262.65948148 135.9873454 264.32580562 135 266 C134.443125 266.515625 133.88625 267.03125 133.3125 267.5625 C131.55048709 269.16789842 131.55048709 269.16789842 132 273 C131.34 273 130.68 273 130 273 C129.04038399 274.33660802 128.09439197 275.68505823 127.21875 277.078125 C126.31362927 278.50543077 125.36974606 279.90830715 124.40625 281.296875 C123.8596875 282.08578125 123.313125 282.8746875 122.75 283.6875 C122.22921875 284.43386719 121.7084375 285.18023437 121.171875 285.94921875 C119.75193053 288.04045664 119.75193053 288.04045664 120 291 C119.34 291 118.68 291 118 291 C116.17157395 293.63670716 116.17157395 293.63670716 114.375 296.875 C113.74335937 297.96554687 113.11171875 299.05609375 112.4609375 300.1796875 C110.84668062 302.76660685 110.84668062 302.76660685 111 305 C110.34 305 109.68 305 109 305 C109 305.99 109 306.98 109 308 C108.34 308 107.68 308 107 308 C106.67 310.31 106.34 312.62 106 315 C105.34 315 104.68 315 104 315 C104 315.66 104 316.32 104 317 C103.34 317 102.68 317 102 317 C99.64089647 321.2637281 99.64089647 321.2637281 99 326 C98.34 326 97.68 326 97 326 C96.32332002 327.24460783 95.65905281 328.49596896 95 329.75 C94.443125 330.79414062 94.443125 330.79414062 93.875 331.859375 C92.74775351 334.23167757 92.74775351 334.23167757 93 338 C92.34 338 91.68 338 91 338 C91 338.99 91 339.98 91 341 C90.34 341 89.68 341 89 341 C89 341.99 89 342.98 89 344 C88.34 344 87.68 344 87 344 C86.49384702 345.26839526 85.99530901 346.53983102 85.5 347.8125 C85.2215625 348.52019531 84.943125 349.22789062 84.65625 349.95703125 C83.8470838 352.11841216 83.8470838 352.11841216 84 355 C83.34 355 82.68 355 82 355 C81.2575 356.60875 81.2575 356.60875 80.5 358.25 C80.08234375 359.15492188 80.08234375 359.15492188 79.65625 360.078125 C78.78457076 362.29242836 78.78457076 362.29242836 79 366 C78.34 366 77.68 366 77 366 C77 367.32 77 368.64 77 370 C76.34 370 75.68 370 75 370 C74.2575 371.60875 74.2575 371.60875 73.5 373.25 C73.08234375 374.15492188 73.08234375 374.15492188 72.65625 375.078125 C71.78457076 377.29242836 71.78457076 377.29242836 72 381 C71.34 381 70.68 381 70 381 C69.67 383.31 69.34 385.62 69 388 C68.34 388 67.68 388 67 388 C66.82984375 388.61746094 66.6596875 389.23492187 66.484375 389.87109375 C65.20127717 394.35511116 63.80917306 398.59177474 61.8125 402.8125 C60.31719757 406.01915617 59.53516265 408.39751052 60 412 C59.34 412 58.68 412 58 412 C56.13627512 417.47221347 54.3919451 422.96549894 52.76171875 428.51171875 C52.00874046 430.97144785 51.16918137 433.3872471 50.3125 435.8125 C49.23288028 438.98388293 48.67227389 441.61349691 49 445 C48.34 445 47.68 445 47 445 C44.40724862 453.34034505 44.40724862 453.34034505 44 462 C43.34 462 42.68 462 42 462 C40.82428549 465.67410785 40.92633254 469.16929183 41 473 C40.34 473 39.68 473 39 473 C39 475.64 39 478.28 39 481 C38.34 481 37.68 481 37 481 C37 484.3 37 487.6 37 491 C36.34 491 35.68 491 35 491 C34.80664062 492.08539063 34.61328125 493.17078125 34.4140625 494.2890625 C34.15127083 495.73441668 33.88823714 497.17972688 33.625 498.625 C33.49867187 499.33785156 33.37234375 500.05070312 33.2421875 500.78515625 C32.64670671 504.03052656 31.98092428 507.05715729 30.93359375 510.1953125 C30.01236257 512.96286058 29.64649463 515.35075536 29.4375 518.25 C29.09964413 522.80071174 29.09964413 522.80071174 28 525 C27.72304178 528.01576733 27.55347062 531.03138112 27.37890625 534.0546875 C27 537 27 537 26 538.91015625 C24.51675292 542.0099109 24.57100667 545.18575823 24.4375 548.5625 C24.11834812 555.64495565 24.11834812 555.64495565 23 559 C22.91684248 561.06498892 22.89264122 563.1325789 22.90234375 565.19921875 C22.90556641 566.40771484 22.90878906 567.61621094 22.91210938 568.86132812 C22.92048828 570.12396484 22.92886719 571.38660156 22.9375 572.6875 C22.94201172 573.96173828 22.94652344 575.23597656 22.95117188 576.54882812 C22.96297127 579.69926564 22.97943403 582.84960949 23 586 C22.34 586 21.68 586 21 586 C21 611.74 21 637.48 21 664 C21.66 664 22.32 664 23 664 C22.99476318 664.86802246 22.98952637 665.73604492 22.98413086 666.63037109 C22.96710138 669.84700273 22.95455592 673.06361141 22.94506836 676.28027344 C22.9400357 677.67318477 22.93320902 679.0660908 22.92456055 680.45898438 C22.91244848 682.45961246 22.90729588 684.46027888 22.90234375 686.4609375 C22.89710693 687.66540527 22.89187012 688.86987305 22.88647461 690.11083984 C22.79912109 692.9413677 22.79912109 692.9413677 24 695 C24.20794697 697.81594854 24.37426834 700.61785111 24.5 703.4375 C24.70132605 709.30264963 24.70132605 709.30264963 26 715 C26.66 715 27.32 715 28 715 C27.98839844 715.83402344 27.97679687 716.66804687 27.96484375 717.52734375 C27.34572451 729.28094824 27.34572451 729.28094824 31 740 C31.40655193 742.40543227 31.72953697 744.82549208 32 747.25 C32.57704759 752.38160181 33.51525605 757.05660832 35 762 C35.39838846 763.80750322 35.7763885 765.61974004 36.125 767.4375 C36.29257812 768.30246094 36.46015625 769.16742187 36.6328125 770.05859375 C36.75398438 770.69925781 36.87515625 771.33992187 37 772 C37.66 772 38.32 772 39 772 C39.03738281 772.85722656 39.07476562 773.71445312 39.11328125 774.59765625 C39.48815526 781.11752377 40.19086396 786.0446316 43 792 C43.80319511 795.31073104 44.42579984 798.64261786 45 802 C45.66 802 46.32 802 47 802 C47.33 804.97 47.66 807.94 48 811 C48.66 811 49.32 811 50 811 C50.1953125 812.88802083 50.390625 814.77604167 50.5859375 816.6640625 C51.10064982 819.5678169 52.03450597 822.2138601 53 825 C53.71456322 827.28973178 54.42288394 829.58142086 55.125 831.875 C55.47820313 833.02742187 55.83140625 834.17984375 56.1953125 835.3671875 C56.46085937 836.23601563 56.72640625 837.10484375 57 838 C57.66 838 58.32 838 59 838 C59.12632813 838.70382812 59.25265625 839.40765625 59.3828125 840.1328125 C61.00534806 847.67041439 63.81437654 854.99162839 67 862 C67.66 862 68.32 862 69 862 C69.33 864.64 69.66 867.28 70 870 C70.66 870 71.32 870 72 870 C72 871.32 72 872.64 72 874 C72.66 874 73.32 874 74 874 C74 875.32 74 876.64 74 878 C74.66 878 75.32 878 76 878 C76.33 880.31 76.66 882.62 77 885 C77.66 885 78.32 885 79 885 C79.12761719 885.57234375 79.25523438 886.1446875 79.38671875 886.734375 C81.21151748 893.47566966 84.84418622 899.79761215 88 906 C88.75102863 907.49948524 89.50105504 908.99947294 90.25 910.5 C90.8275 911.655 91.405 912.81 92 914 C92.66 914 93.32 914 94 914 C94.350625 915.258125 94.70125 916.51625 95.0625 917.8125 C96.71665023 922.79835847 99.27669195 926.81693579 102.171875 931.171875 C103.9542906 933.92928716 105.5238184 936.72579993 107.0625 939.625 C109.3152692 943.83773816 111.77696563 947.78588165 114.484375 951.71875 C116.72489905 955.09108517 118.70881428 958.60669618 120.703125 962.12890625 C121.34507813 963.05509766 121.34507813 963.05509766 122 964 C122.66 964 123.32 964 124 964 C124.4021875 965.3921875 124.4021875 965.3921875 124.8125 966.8125 C125.95857567 969.88880839 126.73482342 970.83330936 129 973 C129.12375 973.639375 129.2475 974.27875 129.375 974.9375 C129.86932143 977.27315102 129.86932143 977.27315102 132.4375 978.9375 C135.20888019 981.16812308 135.97727833 982.6529109 137 986 C137.66 986 138.32 986 139 986 C139.268125 986.598125 139.53625 987.19625 139.8125 987.8125 C140.87296728 990.0299713 140.87296728 990.0299713 142.5625 991.5 C144 993 144 993 144.4375 994.9375 C145.22738805 997.83375617 146.81261517 998.92774069 149 1001 C153.34567782 1005.7020432 157.12311373 1010.24622746 160 1016 C160.66 1016 161.32 1016 162 1016 C162 1016.66 162 1017.32 162 1018 C162.66 1018 163.32 1018 164 1018 C164.25910156 1018.58910156 164.51820313 1019.17820312 164.78515625 1019.78515625 C166.08423419 1022.15357165 167.4675963 1023.60315957 169.4375 1025.4375 C172.20771685 1028.12221633 174.07195008 1030.6468697 176 1034 C179.61990606 1038.77274239 183.7678645 1042.69439388 188.36328125 1046.51953125 C190 1048 190 1048 191 1050 C191.66 1050 192.32 1050 193 1050 C193.25007812 1050.5775 193.50015625 1051.155 193.7578125 1051.75 C195.16681752 1054.30216005 196.78111763 1055.97723062 198.875 1058 C199.55304688 1058.66 200.23109375 1059.32 200.9296875 1060 C201.61289063 1060.66 202.29609375 1061.32 203 1062 C203.70382813 1062.7425 204.40765625 1063.485 205.1328125 1064.25 C206.81669751 1066.22794652 206.81669751 1066.22794652 209 1066 C209.2475 1066.5775 209.495 1067.155 209.75 1067.75 C211.18299988 1070.32939979 212.78424676 1072.06121592 215 1074 C215.66 1074 216.32 1074 217 1074 C217.33 1074.99 217.66 1075.98 218 1077 C220.53889462 1079.97663508 222.2051689 1081.21486253 226 1082 C226.33 1082.66 226.66 1083.32 227 1084 C227.66 1084 228.32 1084 229 1084 C229 1084.66 229 1085.32 229 1086 C233.25212204 1090.38782806 238.27161522 1093.9893422 243.1875 1097.58984375 C245.66714535 1099.51905059 247.78077064 1101.78077064 250 1104 C250.86625 1104.515625 251.7325 1105.03125 252.625 1105.5625 C255 1107 255 1107 256.5 1109.0625 C258.4034703 1111.52114914 260.08972277 1112.0062468 263 1113 C264.34050052 1113.65213539 265.67661368 1114.31379969 267 1115 C267 1115.66 267 1116.32 267 1117 C267.66 1117 268.32 1117 269 1117 C269 1117.66 269 1118.32 269 1119 C270.11375 1119.66 271.2275 1120.32 272.375 1121 C273.00148438 1121.37125 273.62796875 1121.7425 274.2734375 1122.125 C275.97472667 1123.15068348 275.97472667 1123.15068348 278 1123 C278.33 1123.99 278.66 1124.98 279 1126 C280.9717304 1127.05464649 282.97762948 1128.04605164 285 1129 C287.84443422 1130.8204379 290.58456299 1132.67688233 293.25 1134.75 C294.91281427 1136.19374606 294.91281427 1136.19374606 297 1136 C297 1136.66 297 1137.32 297 1138 C297.59167969 1138.32613281 298.18335938 1138.65226562 298.79296875 1138.98828125 C302.21135864 1140.8787122 305.61244117 1142.76086796 308.9375 1144.8125 C310.8922193 1146.16632148 310.8922193 1146.16632148 313 1146 C313 1146.66 313 1147.32 313 1148 C314.32 1148 315.64 1148 317 1148 C317 1148.66 317 1149.32 317 1150 C318.41328129 1150.81837442 319.83078346 1151.62946219 321.25 1152.4375 C322.03890625 1152.88996094 322.8278125 1153.34242187 323.640625 1153.80859375 C325.78833468 1154.89311602 327.65205061 1155.53148716 330 1156 C330 1156.66 330 1157.32 330 1158 C332.12282669 1159.00460531 334.24833021 1160.00355602 336.375 1161 C337.55835938 1161.556875 338.74171875 1162.11375 339.9609375 1162.6875 C342.75428575 1164.13216041 342.75428575 1164.13216041 345 1164 C345 1164.66 345 1165.32 345 1166 C346.051875 1166.4021875 346.051875 1166.4021875 347.125 1166.8125 C350 1168 350 1168 353.125 1169.625 C355.91991924 1171.21572775 355.91991924 1171.21572775 359 1171 C359 1171.66 359 1172.32 359 1173 C359.54527344 1173.24234375 360.09054687 1173.4846875 360.65234375 1173.734375 C361.40644531 1174.06953125 362.16054688 1174.4046875 362.9375 1174.75 C363.75347656 1175.1109375 364.56945312 1175.471875 365.41015625 1175.84375 C367.11070216 1176.60296808 368.80626008 1177.37347885 370.49609375 1178.15625 C371.28113281 1178.5171875 372.06617188 1178.878125 372.875 1179.25 C373.59429687 1179.58515625 374.31359375 1179.9203125 375.0546875 1180.265625 C377.12122508 1181.17659068 377.12122508 1181.17659068 380 1181 C380 1181.66 380 1182.32 380 1183 C381.98 1183.33 383.96 1183.66 386 1184 C386 1184.66 386 1185.32 386 1186 C386.75925781 1186.19335938 387.51851563 1186.38671875 388.30078125 1186.5859375 C389.29464844 1186.84632812 390.28851563 1187.10671875 391.3125 1187.375 C392.29863281 1187.63023438 393.28476562 1187.88546875 394.30078125 1188.1484375 C397 1189 397 1189 400 1191 C401.32 1191 402.64 1191 404 1191 C404 1191.66 404 1192.32 404 1193 C406.31 1193.33 408.62 1193.66 411 1194 C411 1194.66 411 1195.32 411 1196 C411.54527344 1196.09796875 412.09054687 1196.1959375 412.65234375 1196.296875 C416.75308047 1197.11001254 420.46120292 1198.08955574 424.25 1199.875 C431.2785812 1203.16655387 439.14147779 1206.40747893 447 1206 C447 1206.66 447 1207.32 447 1208 C447.99902344 1208.19335938 448.99804688 1208.38671875 450.02734375 1208.5859375 C451.31769531 1208.84632812 452.60804688 1209.10671875 453.9375 1209.375 C455.22527344 1209.63023438 456.51304687 1209.88546875 457.83984375 1210.1484375 C459.40412109 1210.56996094 459.40412109 1210.56996094 461 1211 C461.33 1211.66 461.66 1212.32 462 1213 C464.64 1213 467.28 1213 470 1213 C470 1213.66 470 1214.32 470 1215 C472.64 1215 475.28 1215 478 1215 C478 1215.66 478 1216.32 478 1217 C480.64 1217 483.28 1217 486 1217 C486 1217.66 486 1218.32 486 1219 C488.97 1219 491.94 1219 495 1219 C495 1219.66 495 1220.32 495 1221 C497.97 1221 500.94 1221 504 1221 C504 1221.66 504 1222.32 504 1223 C507.63 1223 511.26 1223 515 1223 C515 1223.66 515 1224.32 515 1225 C516.17369141 1225.09087891 516.17369141 1225.09087891 517.37109375 1225.18359375 C518.88896484 1225.30927734 518.88896484 1225.30927734 520.4375 1225.4375 C521.44683594 1225.51871094 522.45617187 1225.59992188 523.49609375 1225.68359375 C526 1226 526 1226 527 1227 C530.29684855 1227.28609016 533.59381125 1227.44890147 536.8984375 1227.62109375 C540 1228 540 1228 543 1230 C545.69035041 1230.2764449 548.3037379 1230.4641488 551 1230.5625 C558.64674466 1230.88224822 558.64674466 1230.88224822 562 1232 C563.74846055 1232.13687132 565.50101616 1232.22446645 567.25390625 1232.28125 C568.27291016 1232.31863281 569.29191406 1232.35601563 570.34179688 1232.39453125 C572.49283436 1232.46497153 574.64387605 1232.53528357 576.79492188 1232.60546875 C578.32149414 1232.66154297 578.32149414 1232.66154297 579.87890625 1232.71875 C581.27991577 1232.76418945 581.27991577 1232.76418945 582.70922852 1232.81054688 C585 1233 585 1233 587 1234 C589.52215925 1234.09811803 592.01666633 1234.13631568 594.5390625 1234.12939453 C595.70511017 1234.13202301 595.70511017 1234.13202301 596.89471436 1234.13470459 C599.47149876 1234.13911591 602.04821486 1234.13618764 604.625 1234.1328125 C606.41097019 1234.13348575 608.19694028 1234.13445594 609.98291016 1234.13571167 C613.72885001 1234.13718767 617.47476604 1234.13503722 621.22070312 1234.13037109 C626.02957047 1234.12467387 630.83838201 1234.12795339 635.64724731 1234.13394356 C639.33602318 1234.13755181 643.02478575 1234.13640936 646.71356201 1234.13381577 C648.48704027 1234.13314723 650.26051972 1234.13397238 652.03399658 1234.13629532 C654.50967623 1234.13882614 656.98526467 1234.13497514 659.4609375 1234.12939453 C660.19866394 1234.13141876 660.93639038 1234.13344299 661.69647217 1234.13552856 C665.47389703 1234.18078938 665.47389703 1234.18078938 669 1233 C670.70378688 1232.85909212 672.41238854 1232.77416906 674.12109375 1232.71875 C675.13880859 1232.68136719 676.15652344 1232.64398437 677.20507812 1232.60546875 C678.27177734 1232.57066406 679.33847656 1232.53585937 680.4375 1232.5 C682.54050109 1232.43113277 684.64337984 1232.35838941 686.74609375 1232.28125 C687.68122803 1232.25095703 688.6163623 1232.22066406 689.57983398 1232.18945312 C692.14160629 1232.08681227 692.14160629 1232.08681227 695 1231 C695 1230.34 695 1229.68 695 1229 C696.12019531 1229.01160156 697.24039063 1229.02320313 698.39453125 1229.03515625 C699.86718583 1229.04453622 701.33984222 1229.0536362 702.8125 1229.0625 C703.55048828 1229.07087891 704.28847656 1229.07925781 705.04882812 1229.08789062 C708.29922068 1229.10259828 710.89404895 1229.03531702 714 1228 C717.12486016 1227.69513559 720.25028111 1227.49158784 723.3828125 1227.28125 C725.92413861 1227.28503015 725.92413861 1227.28503015 727 1226 C729.83972535 1225.67648699 732.68073737 1225.4869571 735.53125 1225.28125 C737.9413605 1225.26614735 737.9413605 1225.26614735 739 1224 C740.68183948 1223.76712992 742.3712416 1223.58735834 744.0625 1223.4375 C745.44115234 1223.31181641 745.44115234 1223.31181641 746.84765625 1223.18359375 C747.55792969 1223.12300781 748.26820313 1223.06242187 749 1223 C749 1222.34 749 1221.68 749 1221 C749.63808594 1221.01160156 750.27617188 1221.02320313 750.93359375 1221.03515625 C751.75988281 1221.04417969 752.58617187 1221.05320312 753.4375 1221.0625 C754.26121094 1221.07410156 755.08492187 1221.08570313 755.93359375 1221.09765625 C757.99163938 1221.23267348 757.99163938 1221.23267348 759 1220 C760.51469448 1219.76807135 762.03754562 1219.58784762 763.5625 1219.4375 C764.38878906 1219.35371094 765.21507812 1219.26992187 766.06640625 1219.18359375 C766.70449219 1219.12300781 767.34257813 1219.06242187 768 1219 C768 1218.34 768 1217.68 768 1217 C769.134375 1217.020625 770.26875 1217.04125 771.4375 1217.0625 C774.81575674 1217.41577477 774.81575674 1217.41577477 776 1216 C777.5159375 1215.814375 777.5159375 1215.814375 779.0625 1215.625 C782.56907238 1215.06840121 785.43258059 1214.09855612 788.72290039 1212.82910156 C792.80842061 1211.34154644 797.00030971 1210.22520496 801.1875 1209.0625 C809.16244191 1206.81838681 817.09845176 1204.49213952 825 1202 C825 1201.34 825 1200.68 825 1200 C827.64 1199.67 830.28 1199.34 833 1199 C833 1198.34 833 1197.68 833 1197 C834.00546875 1196.8865625 835.0109375 1196.773125 836.046875 1196.65625 C839.98277358 1196.09341254 843.52059088 1194.88843803 847.25 1193.5 C848.45140625 1193.0565625 849.6528125 1192.613125 850.890625 1192.15625 C852.42976562 1191.58390625 852.42976562 1191.58390625 854 1191 C854.99 1190.67 855.98 1190.34 857 1190 C857 1189.34 857 1188.68 857 1188 C857.763125 1187.938125 858.52625 1187.87625 859.3125 1187.8125 C863.59309858 1186.86931726 867.14716004 1185.20790733 871.09765625 1183.34375 C875.32878785 1181.38478732 879.6548168 1179.68717526 884 1178 C884 1177.34 884 1176.68 884 1176 C886.97 1175.34 889.94 1174.68 893 1174 C893 1173.34 893 1172.68 893 1172 C894.98 1171.67 896.96 1171.34 899 1171 C899 1170.34 899 1169.68 899 1169 C899.72960937 1168.8865625 900.45921875 1168.773125 901.2109375 1168.65625 C904.08670654 1167.97959846 906.09227255 1166.99700729 908.625 1165.5 C911.13294334 1164.02776023 913.22501648 1162.92499451 916 1162 C916 1161.34 916 1160.68 916 1160 C916.57234375 1159.87753906 917.1446875 1159.75507812 917.734375 1159.62890625 C920.09953191 1158.97237132 922.07206797 1158.06276488 924.25 1156.9375 C924.95640625 1156.57527344 925.6628125 1156.21304687 926.390625 1155.83984375 C926.92171875 1155.56269531 927.4528125 1155.28554687 928 1155 C928 1154.34 928 1153.68 928 1153 C929.0828125 1152.87625 929.0828125 1152.87625 930.1875 1152.75 C933.58997746 1151.84267268 935.27466519 1150.20622342 938 1148 C940.29613618 1146.85912232 942.60900583 1145.93764477 945 1145 C945 1144.34 945 1143.68 945 1143 C945.94875 1142.690625 946.8975 1142.38125 947.875 1142.0625 C950.86080408 1141.12605258 950.86080408 1141.12605258 953 1140 C953 1139.34 953 1138.68 953 1138 C953.721875 1137.731875 954.44375 1137.46375 955.1875 1137.1875 C960.0697528 1135.12610437 964.23631893 1132.18241269 968.5 1129.0625 C969.4178125 1128.39347656 970.335625 1127.72445313 971.28125 1127.03515625 C973.11026372 1125.66602385 974.91505024 1124.26398133 976.6953125 1122.83203125 C979 1121 979 1121 981.375 1119.625 C984.30665045 1117.81016877 986.72395301 1115.68366044 989.3046875 1113.41015625 C991 1112 991 1112 993.625 1110.4375 C996.17693536 1109.02205474 996.17693536 1109.02205474 998.5 1106.5 C1000.89896503 1104.10103497 1003.11519519 1102.73088289 1006 1101 C1006.845625 1100.13375 1007.69125 1099.2675 1008.5625 1098.375 C1011 1096 1011 1096 1012.95703125 1095.5703125 C1015.61312 1094.82884222 1016.44282716 1093.64895378 1018.125 1091.5 C1020.82372881 1088.08813559 1020.82372881 1088.08813559 1023 1087 C1023 1086.34 1023 1085.68 1023 1085 C1023.66 1085 1024.32 1085 1025 1085 C1025.66 1084.01 1026.32 1083.02 1027 1082 C1029.625 1080.8125 1029.625 1080.8125 1032 1080 C1032 1079.34 1032 1078.68 1032 1078 C1032.56203125 1077.7628125 1033.1240625 1077.525625 1033.703125 1077.28125 C1036.51894042 1075.71052303 1038.47955416 1073.78528536 1040.75 1071.5 C1041.54921875 1070.7059375 1042.3484375 1069.911875 1043.171875 1069.09375 C1045.21923609 1067.21216538 1045.21923609 1067.21216538 1045 1065 C1045.99 1064.67 1046.98 1064.34 1048 1064 C1049.7087646 1062.62485459 1049.7087646 1062.62485459 1051 1061 C1051 1060.34 1051 1059.68 1051 1059 C1051.66 1059 1052.32 1059 1053 1059 C1053 1058.34 1053 1057.68 1053 1057 C1053.66 1057 1054.32 1057 1055 1057 C1056.36176922 1055.35648543 1057.68962066 1053.68477344 1059 1052 C1061.22474553 1049.72697789 1063.4907896 1047.49919129 1065.76196289 1045.27270508 C1067.71958235 1043.35177056 1069.67233447 1041.42596894 1071.625 1039.5 C1072.29273438 1038.84902344 1072.96046875 1038.19804688 1073.6484375 1037.52734375 C1076.99576638 1034.21348816 1079.75603603 1031.18924332 1082 1027 C1083 1026 1084 1025 1085 1024 C1085 1023.34 1085 1022.68 1085 1022 C1085.66 1022 1086.32 1022 1087 1022 C1087 1021.34 1087 1020.68 1087 1020 C1087.66 1020 1088.32 1020 1089 1020 C1091.70817728 1017.79197732 1091.70817728 1017.79197732 1094 1015 C1094 1013.68 1094 1012.36 1094 1011 C1094.66 1011 1095.32 1011 1096 1011 C1099.31595434 1008.08843034 1101.01136707 1006.23699828 1102 1002 C1103.30915279 1000.96854629 1104.64082143 999.96457834 1106 999 C1106 998.34 1106 997.68 1106 997 C1106.66 997 1107.32 997 1108 997 C1108.226875 996.29875 1108.45375 995.5975 1108.6875 994.875 C1110.49858035 990.90787162 1112.9978164 987.0010918 1117 985 C1117.7115625 983.5459375 1117.7115625 983.5459375 1118.4375 982.0625 C1120 979 1120 979 1123 977 C1123.70311138 975.34837758 1124.36620211 973.67944111 1125 972 C1126.48133825 969.66993744 1128.06369293 967.43581706 1129.66015625 965.18359375 C1130.9533192 963.07607746 1131.55651688 961.41451918 1132 959 C1132.99 959 1133.98 959 1135 959 C1135 957.35 1135 955.7 1135 954 C1135.66 954 1136.32 954 1137 954 C1137 953.34 1137 952.68 1137 952 C1137.66 952 1138.32 952 1139 952 C1139.67154933 950.71086513 1140.33708859 949.41859796 1141 948.125 C1141.37125 947.40570312 1141.7425 946.68640625 1142.125 945.9453125 C1143.13673746 944.05151023 1143.13673746 944.05151023 1143 942 C1143.66 942 1144.32 942 1145 942 C1145.33 940.35 1145.66 938.7 1146 937 C1146.66 937 1147.32 937 1148 937 C1148 936.01 1148 935.02 1148 934 C1148.66 934 1149.32 934 1150 934 C1150.33 932.02 1150.66 930.04 1151 928 C1151.66 928 1152.32 928 1153 928 C1153.53625 926.88625 1154.0725 925.7725 1154.625 924.625 C1156.27318363 921.31694349 1158.07571212 918.15505068 1160 915 C1164.98071121 907.47396905 1164.98071121 907.47396905 1167 899 C1167.66 899 1168.32 899 1169 899 C1171.03435531 895.27034861 1172 893.33094958 1172 889 C1172.66 889 1173.32 889 1174 889 C1174.33 886.69 1174.66 884.38 1175 882 C1175.66 882 1176.32 882 1177 882 C1177 880.68 1177 879.36 1177 878 C1177.66 878 1178.32 878 1179 878 C1179 876.68 1179 875.36 1179 874 C1179.66 874 1180.32 874 1181 874 C1181.67260351 872.23141309 1182.33788395 870.46003984 1183 868.6875 C1183.37125 867.70136719 1183.7425 866.71523438 1184.125 865.69921875 C1185.15418502 862.99728344 1185.15418502 862.99728344 1185 860 C1185.66 860 1186.32 860 1187 860 C1187.33 857.36 1187.66 854.72 1188 852 C1188.66 852 1189.32 852 1190 852 C1190.48212214 850.43840941 1190.96055873 848.87568072 1191.4375 847.3125 C1191.70433594 846.44238281 1191.97117187 845.57226562 1192.24609375 844.67578125 C1192.96344529 842.12974079 1193.517541 839.5996577 1194 837 C1194.66 837 1195.32 837 1196 837 C1196.33 834.03 1196.66 831.06 1197 828 C1197.66 828 1198.32 828 1199 828 C1199.33 825.36 1199.66 822.72 1200 820 C1200.66 820 1201.32 820 1202 820 C1202.13277344 819.36191406 1202.26554687 818.72382812 1202.40234375 818.06640625 C1202.57894531 817.24011719 1202.75554687 816.41382813 1202.9375 815.5625 C1203.11152344 814.73878906 1203.28554687 813.91507813 1203.46484375 813.06640625 C1204 811 1204 811 1205 810 C1205.04080783 808.00041636 1205.04254356 805.99954746 1205 804 C1205.66 804 1206.32 804 1207 804 C1208.78045497 797.97998632 1210.21069334 791.91221476 1211.58789062 785.7890625 C1212.89347321 780.10652679 1212.89347321 780.10652679 1214 779 C1214.04092937 776.66702567 1214.04241723 774.33294775 1214 772 C1214.66 772 1215.32 772 1216 772 C1216.144375 770.865625 1216.28875 769.73125 1216.4375 768.5625 C1217 765 1217 765 1218 764 C1218.20699563 762.50503158 1218.36679259 761.0033408 1218.5 759.5 C1218.88888889 755.11111111 1218.88888889 755.11111111 1220 754 C1220.07148199 752.64756083 1220.08399454 751.29165633 1220.0625 749.9375 C1220.041875 748.638125 1220.02125 747.33875 1220 746 C1220.66 746 1221.32 746 1222 746 C1222 742.7 1222 739.4 1222 736 C1222.66 736 1223.32 736 1224 736 C1224.09087891 734.82630859 1224.09087891 734.82630859 1224.18359375 733.62890625 C1224.26738281 732.61699219 1224.35117188 731.60507812 1224.4375 730.5625 C1224.51871094 729.55316406 1224.59992188 728.54382813 1224.68359375 727.50390625 C1225 725 1225 725 1226 724 C1226.20968751 721.67013877 1226.36815389 719.33555964 1226.5 717 C1226.88888889 710.11111111 1226.88888889 710.11111111 1228 709 C1228.21220322 706.39166878 1228.37656339 703.80024168 1228.5 701.1875 C1228.87003966 693.47834034 1228.87003966 693.47834034 1229.5 691.15966797 C1230.16477972 688.28826102 1230.20249379 685.53545154 1230.28125 682.58984375 C1230.33732422 680.73456055 1230.33732422 680.73456055 1230.39453125 678.84179688 C1230.46494919 676.23502889 1230.53526138 673.62825804 1230.60546875 671.02148438 C1230.66154297 669.16813477 1230.66154297 669.16813477 1230.71875 667.27734375 C1230.76418945 665.57952759 1230.76418945 665.57952759 1230.81054688 663.84741211 C1231 661 1231 661 1232 658 C1232.09441053 655.8738911 1232.12793841 653.74490276 1232.12939453 651.61669922 C1232.13254669 650.29878387 1232.13569885 648.98086853 1232.13894653 647.62301636 C1232.13715702 646.18357307 1232.13510613 644.74413008 1232.1328125 643.3046875 C1232.13348597 641.83163436 1232.13445636 640.35858133 1232.13571167 638.88552856 C1232.13718568 635.8004653 1232.135043 632.715431 1232.13037109 629.63037109 C1232.12466396 625.66778709 1232.12796089 621.70527067 1232.13394356 617.74268913 C1232.13754865 614.7024789 1232.136411 611.66228483 1232.13381577 608.62207413 C1232.13314687 607.16037106 1232.13397362 605.69866655 1232.13629532 604.23696518 C1232.13882204 602.19948096 1232.13429115 600.16199162 1232.12939453 598.12451172 C1232.12859894 596.96329803 1232.12780334 595.80208435 1232.12698364 594.60568237 C1232.2959741 592.07202418 1232.2959741 592.07202418 1231 591 C1230.85353786 588.89102065 1230.77252108 586.77743746 1230.71875 584.6640625 C1230.68136719 583.37242187 1230.64398437 582.08078125 1230.60546875 580.75 C1230.56978458 579.3750136 1230.53463428 578.00001325 1230.5 576.625 C1230.43227826 573.95030766 1230.35850034 571.27602257 1230.28125 568.6015625 C1230.25095703 567.40869629 1230.22066406 566.21583008 1230.18945312 564.98681641 C1230.12437202 561.94721699 1230.12437202 561.94721699 1229 559 C1228.85507877 557.59335074 1228.75371069 556.1818867 1228.68359375 554.76953125 C1228.64169922 553.96708984 1228.59980469 553.16464844 1228.55664062 552.33789062 C1228.51732422 551.50451172 1228.47800781 550.67113281 1228.4375 549.8125 C1228.37272461 548.5450293 1228.37272461 548.5450293 1228.30664062 547.25195312 C1228.20068482 545.16815567 1228.0998498 543.08409897 1228 541 C1227.01 540.67 1226.02 540.34 1225 540 C1225.02320313 539.14019531 1225.04640625 538.28039062 1225.0703125 537.39453125 C1225.32128337 522.75913323 1225.32128337 522.75913323 1221 509 C1220.65625 506.9921875 1220.65625 506.9921875 1220.5 504.875 C1220.03841986 499.83118798 1219.06382974 494.9473247 1218 490 C1217.34 490 1216.68 490 1216 490 C1216 487.36 1216 484.72 1216 482 C1215.34 482 1214.68 482 1214 482 C1214.020625 480.865625 1214.04125 479.73125 1214.0625 478.5625 C1214.41577477 475.18424326 1214.41577477 475.18424326 1213 474 C1212.76719635 472.0710555 1212.53640466 470.14182553 1212.3203125 468.2109375 C1211.85841935 465.02274818 1210.96005831 462.07218658 1210 459 C1209.34 459 1208.68 459 1208 459 C1208.12375 457.6696875 1208.12375 457.6696875 1208.25 456.3125 C1208.27450679 450.29608397 1205.85614399 444.64636167 1204 439 C1203.30897277 436.67252915 1202.6526215 434.33856039 1202 432 C1201.34 432 1200.68 432 1200 432 C1200 430.35 1200 428.7 1200 427 C1199.34 427 1198.68 427 1198 427 C1197.67 423.7 1197.34 420.4 1197 417 C1196.34 417 1195.68 417 1195 417 C1194.67 414.03 1194.34 411.06 1194 408 C1193.34 408 1192.68 408 1192 408 C1191.9175 407.05125 1191.835 406.1025 1191.75 405.125 C1191.06008234 400.11022533 1188.99662356 395.61545074 1187 391 C1186.34 391 1185.68 391 1185 391 C1184.67 388.36 1184.34 385.72 1184 383 C1183.34 383 1182.68 383 1182 383 C1182 382.01 1182 381.02 1182 380 C1181.34 380 1180.68 380 1180 380 C1179.938125 378.39125 1179.938125 378.39125 1179.875 376.75 C1179.10926956 370.55852247 1175.90525997 365.42362091 1173 360 C1172.13904149 358.31595505 1171.28441888 356.62864912 1170.4375 354.9375 C1170.04046875 354.14472656 1169.6434375 353.35195313 1169.234375 352.53515625 C1167.05925825 348.06790697 1165.02660682 343.53614974 1163 339 C1162.34 339 1161.68 339 1161 339 C1160.91878906 338.33613281 1160.83757812 337.67226563 1160.75390625 336.98828125 C1159.75192188 333.01668518 1157.91366546 329.75415441 1155.9375 326.1875 C1155.56044922 325.49462891 1155.18339844 324.80175781 1154.79492188 324.08789062 C1153.86916148 322.38871015 1152.93537688 320.69390575 1152 319 C1151.34 319 1150.68 319 1150 319 C1149.896875 318.46375 1149.79375 317.9275 1149.6875 317.375 C1147.90561246 311.21938851 1144.14619927 305.63630298 1140.9375 300.125 C1140.49083984 299.34125 1140.04417969 298.5575 1139.58398438 297.75 C1139.15279297 297.01007813 1138.72160156 296.27015625 1138.27734375 295.5078125 C1137.88796631 294.83379395 1137.49858887 294.15977539 1137.09741211 293.46533203 C1136.73526611 292.98177246 1136.37312012 292.49821289 1136 292 C1135.34 292 1134.68 292 1134 292 C1133.5978125 290.63875 1133.5978125 290.63875 1133.1875 289.25 C1132.09868368 286.27008166 1131.13608899 284.31409641 1129 282 C1128.34 282 1127.68 282 1127 282 C1126.84144531 281.16662109 1126.84144531 281.16662109 1126.6796875 280.31640625 C1125.86767068 277.54901558 1124.61951665 275.40233717 1123.125 272.9375 C1122.61195312 272.08027344 1122.09890625 271.22304688 1121.5703125 270.33984375 C1120.17576067 268.26189214 1118.91827899 266.59856582 1117 265 C1116.34 265 1115.68 265 1115 265 C1114.87625 263.88625 1114.87625 263.88625 1114.75 262.75 C1113.84305017 259.4245173 1112.48140301 258.33543813 1110 256 C1108.98648336 254.34151823 1107.98879205 252.67334039 1107 251 C1104.00358384 246.72597082 1100.7874053 242.7061571 1097.3125 238.8125 C1094.8244822 236.01826462 1092.82308337 233.28155007 1091 230 C1089.53228729 227.73545927 1089.53228729 227.73545927 1088 226 C1087.34 226 1086.68 226 1086 226 C1086 225.34 1086 224.68 1086 224 C1085.34 224 1084.68 224 1084 224 C1084 223.34 1084 222.68 1084 222 C1083.34 222 1082.68 222 1082 222 C1081.67 221.01 1081.34 220.02 1081 219 C1080.34 219 1079.68 219 1079 219 C1078.69642578 217.71222656 1078.69642578 217.71222656 1078.38671875 216.3984375 C1076.63099301 212.09567302 1074.16390509 209.75348187 1070.8125 206.625 C1067.30696438 203.28717379 1063.90253824 199.95100847 1060.75 196.2734375 C1056.5868539 191.44281945 1052.11780806 186.9317236 1047.60961914 182.42431641 C1046.16718144 180.97965004 1044.73298435 179.52710146 1043.29882812 178.07421875 C1042.38939453 177.16285156 1041.47996094 176.25148437 1040.54296875 175.3125 C1039.71821045 174.48363281 1038.89345215 173.65476563 1038.04370117 172.80078125 C1036.20388343 170.77963045 1036.20388343 170.77963045 1034 171 C1033.773125 170.360625 1033.54625 169.72125 1033.3125 169.0625 C1032.14749104 166.72806339 1032.14749104 166.72806339 1029.375 166.25 C1028.59125 166.1675 1027.8075 166.085 1027 166 C1027 165.34 1027 164.68 1027 164 C1026.34 164 1025.68 164 1025 164 C1025 163.34 1025 162.68 1025 162 C1023.41561079 160.39729881 1023.41561079 160.39729881 1021.375 158.75 C1018.71251043 156.5046963 1016.23750749 154.24478869 1013.875 151.6875 C1010.92122171 148.92635942 1008.88999454 147.92618918 1005 147 C1005 146.34 1005 145.68 1005 145 C1003.46729429 143.64864497 1001.87223227 142.36746113 1000.25 141.125 C996.93620507 138.57667232 993.94093691 135.96634457 991 133 C990.278125 132.566875 989.55625 132.13375 988.8125 131.6875 C985.37893892 129.62736335 982.35298127 127.18725641 979.21484375 124.70703125 C977.38905083 123.29985047 975.55943287 121.99942173 973.625 120.75 C971 119 971 119 969.375 117.3125 C968.08013305 115.84208483 968.08013305 115.84208483 966.125 115.625 C962.92293073 114.68321492 961.30338113 112.35956115 959 110 C956.71126384 108.42621684 956.71126384 108.42621684 954 107 C953.25878906 106.57332031 952.51757812 106.14664063 951.75390625 105.70703125 C947.62321031 103.03826807 947.62321031 103.03826807 943 102 C943 101.34 943 100.68 943 100 C942.113125 99.566875 941.22625 99.13375 940.3125 98.6875 C937 97 937 97 934.3125 95.3125 C932.0083247 93.75319724 932.0083247 93.75319724 929 94 C929 93.34 929 92.68 929 92 C928.01 92 927.02 92 926 92 C926 91.34 926 90.68 926 90 C923.69 89.34 921.38 88.68 919 88 C919 87.34 919 86.68 919 86 C918.01 86 917.02 86 916 86 C916 85.34 916 84.68 916 84 C914.02 83.67 912.04 83.34 910 83 C910 82.34 910 81.68 910 81 C907.91870896 80.01649975 905.83488641 79.03835542 903.75 78.0625 C902.58984375 77.51722656 901.4296875 76.97195312 900.234375 76.41015625 C897.76955223 75.33551734 895.61934773 74.51219919 893 74 C893 73.34 893 72.68 893 72 C891.948125 71.62875 890.89625 71.2575 889.8125 70.875 C884.67875898 68.97054769 879.78500898 66.5822259 874.85546875 64.20703125 C872.05613903 62.80532388 872.05613903 62.80532388 869 63 C869 62.34 869 61.68 869 61 C866.69 60.67 864.38 60.34 862 60 C862 59.34 862 58.68 862 58 C861.38253906 57.82984375 860.76507812 57.6596875 860.12890625 57.484375 C855.64488884 56.20127717 851.40822526 54.80917306 847.1875 52.8125 C843.98084383 51.31719757 841.60248948 50.53516265 838 51 C838 50.34 838 49.68 838 49 C836.08594633 48.32586789 834.16863974 47.6609668 832.25 47 C831.18265625 46.62875 830.1153125 46.2575 829.015625 45.875 C825.88307438 44.81422523 825.88307438 44.81422523 822 45 C822 44.34 822 43.68 822 43 C821.02160156 42.74605469 820.04320312 42.49210937 819.03515625 42.23046875 C812.56948761 40.53749206 806.18050374 38.80436899 799.87109375 36.5859375 C797.75882197 35.87529161 797.75882197 35.87529161 794.5 35.4375 C793.675 35.293125 792.85 35.14875 792 35 C791.67 34.34 791.34 33.68 791 33 C789.13690908 32.5720382 789.13690908 32.5720382 787 32.4375 C783.09589041 32.09589041 783.09589041 32.09589041 782 31 C779.66702567 30.95907063 777.33294775 30.95758277 775 31 C775 30.34 775 29.68 775 29 C774.40985107 28.88406494 773.81970215 28.76812988 773.21166992 28.64868164 C770.5365443 28.12197433 767.86202044 27.59227135 765.1875 27.0625 C764.25873047 26.88009766 763.32996094 26.69769531 762.37304688 26.50976562 C761.0340332 26.24389648 761.0340332 26.24389648 759.66796875 25.97265625 C758.43469849 25.72914429 758.43469849 25.72914429 757.17651367 25.48071289 C755 25 755 25 752 24 C750.43881572 23.93259135 748.8749748 23.91485544 747.3125 23.9375 C746.50425781 23.94652344 745.69601562 23.95554687 744.86328125 23.96484375 C744.24839844 23.97644531 743.63351562 23.98804688 743 24 C743 23.34 743 22.68 743 22 C739.04 22 735.08 22 731 22 C731 21.34 731 20.68 731 20 C729.78441406 19.86722656 728.56882812 19.73445313 727.31640625 19.59765625 C725.73174516 19.41949909 724.1471111 19.24110125 722.5625 19.0625 C721.76005859 18.97548828 720.95761719 18.88847656 720.13085938 18.79882812 C714.11328125 18.11328125 714.11328125 18.11328125 713 17 C709.83367068 16.71090037 706.66686238 16.55120385 703.4921875 16.37890625 C700 16 700 16 696.78515625 14.97265625 C691.66365061 13.65660372 686.82408795 13.78599461 681.5625 13.875 C680.54478516 13.88402344 679.52707031 13.89304687 678.47851562 13.90234375 C675.98542844 13.92575302 673.49284141 13.958543 671 14 C671 13.34 671 12.68 671 12 C659.54349984 11.97687759 648.08700519 11.95908543 636.63048649 11.94818783 C631.31134787 11.94295878 625.99222516 11.93586073 620.6730957 11.92456055 C615.54436015 11.91373245 610.41563994 11.90772333 605.28689384 11.90512276 C603.32558386 11.90326837 601.36427476 11.89964749 599.40297127 11.89426994 C596.66584553 11.88706054 593.92878403 11.88600901 591.19165039 11.88647461 C590.37238068 11.88287933 589.55311096 11.87928406 588.70901489 11.87557983 C585.05496562 11.534445 585.05496562 11.534445 582 13 Z " fill="#000000" transform="translate(0,0)"/>
<path d="M0 0 C1.00857056 -0.0033284 2.01714111 -0.0066568 3.05627441 -0.01008606 C5.18074085 -0.01511903 7.3052151 -0.01749552 9.4296875 -0.01733398 C12.61993031 -0.01950652 15.80981877 -0.03766319 19 -0.05664062 C31.19533031 -0.08898427 43.07529907 0.47567681 55.15625 2.16796875 C55.15625 2.82796875 55.15625 3.48796875 55.15625 4.16796875 C56.26806641 4.20664062 56.26806641 4.20664062 57.40234375 4.24609375 C64.11939572 4.60784441 70.42963636 5.50197281 76.96875 7.04296875 C77.660896 7.20442383 78.35304199 7.36587891 79.06616211 7.53222656 C83.26861537 8.56467185 87.27506957 9.87829401 91.3034668 11.45825195 C93.23647994 12.19870118 95.18566247 12.84755173 97.15625 13.48046875 C110.0449363 17.76932834 122.12580773 22.8647849 134.15625 29.16796875 C134.15625 29.82796875 134.15625 30.48796875 134.15625 31.16796875 C135.18685547 31.53535156 135.18685547 31.53535156 136.23828125 31.91015625 C139.66458455 33.3870902 142.72609174 35.2655923 145.84375 37.29296875 C146.46169434 37.69402832 147.07963867 38.09508789 147.71630859 38.50830078 C157.70602499 45.08082376 166.4943697 52.96480849 175.15625 61.16796875 C176.09855469 62.05613281 177.04085938 62.94429688 178.01171875 63.859375 C182.97858693 68.67212316 187.53666049 73.65427984 191.78125 79.10546875 C192.42054443 79.92120361 192.42054443 79.92120361 193.07275391 80.75341797 C195.13159646 83.47563707 196.67824394 85.74775299 197.15625 89.16796875 C197.81625 89.16796875 198.47625 89.16796875 199.15625 89.16796875 C200.16133801 90.95678611 201.16017736 92.74911571 202.15625 94.54296875 C202.9915625 96.03957031 202.9915625 96.03957031 203.84375 97.56640625 C205.15625 100.16796875 205.15625 100.16796875 205.15625 102.16796875 C205.81625 102.16796875 206.47625 102.16796875 207.15625 102.16796875 C208.14625 105.13796875 209.13625 108.10796875 210.15625 111.16796875 C210.81625 111.16796875 211.47625 111.16796875 212.15625 111.16796875 C215.91244801 120.46955968 219.48742611 129.79362421 222.53125 139.35546875 C222.90660889 140.52009644 222.90660889 140.52009644 223.28955078 141.70825195 C223.5214209 142.45163818 223.75329102 143.19502441 223.9921875 143.9609375 C224.19376465 144.60571045 224.3953418 145.2504834 224.60302734 145.91479492 C225.34878411 148.95212467 225.71394863 152.07185915 226.15625 155.16796875 C184.57625 155.16796875 142.99625 155.16796875 100.15625 155.16796875 C99.16625 152.85796875 98.17625 150.54796875 97.15625 148.16796875 C87.75808495 132.75758263 73.54094778 122.9849598 57.15625 116.16796875 C56.269375 115.67296875 55.3825 115.17796875 54.46875 114.66796875 C32.92663974 104.9130509 0.6383213 104.79965671 -21.84375 111.16796875 C-22.90045898 111.45800781 -22.90045898 111.45800781 -23.97851562 111.75390625 C-52.62038843 119.78850953 -76.05862624 138.38200886 -90.84375 164.16796875 C-92.98002166 168.110361 -94.94305899 172.10765202 -96.84375 176.16796875 C-97.55724609 177.60849609 -97.55724609 177.60849609 -98.28515625 179.078125 C-100.95848204 184.6151844 -102.32624845 189.0614505 -102.84375 195.16796875 C-103.48472297 197.17635071 -104.15274447 199.17624693 -104.84375 201.16796875 C-107.9206039 212.89568724 -108.05052344 224.56645058 -108.03125 236.60546875 C-108.02998108 237.41331818 -108.02871216 238.2211676 -108.02740479 239.05349731 C-107.94033997 268.03636751 -102.73684397 294.80771666 -87.91015625 320.1640625 C-86.84375 322.16796875 -86.84375 322.16796875 -86.84375 324.16796875 C-86.18375 324.16796875 -85.52375 324.16796875 -84.84375 324.16796875 C-83.29460603 326.07484068 -81.84543361 327.9931304 -80.40625 329.98046875 C-71.77829732 341.46136427 -60.90411494 353.48118044 -46.84375 358.16796875 C-46.84375 358.82796875 -46.84375 359.48796875 -46.84375 360.16796875 C-45.74160156 360.34779297 -45.74160156 360.34779297 -44.6171875 360.53125 C-41.88024031 361.1595914 -39.9408544 362.05191882 -37.46875 363.35546875 C-23.43454167 369.85173523 -7.76806886 373.09407996 7.65087891 373.15332031 C10.51218992 373.17004986 13.37002914 373.24441756 16.23046875 373.31640625 C49.27970878 373.95505101 77.14158466 364.61088548 101.52734375 341.85546875 C109.80931843 333.38890325 115.48305146 323.44903669 121.15625 313.16796875 C121.671875 312.35585938 122.1875 311.54375 122.71875 310.70703125 C124.49399239 307.57141289 125.61125144 304.38638481 126.78125 300.98046875 C129.08845339 294.30356197 129.08845339 294.30356197 130.15625 292.16796875 C83.29625 292.16796875 36.43625 292.16796875 -11.84375 292.16796875 C-11.84375 264.11796875 -11.84375 236.06796875 -11.84375 207.16796875 C69.00625 207.16796875 149.85625 207.16796875 233.15625 207.16796875 C233.15625 315.16796875 233.15625 315.16796875 229.15625 327.16796875 C228.49625 327.16796875 227.83625 327.16796875 227.15625 327.16796875 C226.49625 330.46796875 225.83625 333.76796875 225.15625 337.16796875 C224.49625 337.16796875 223.83625 337.16796875 223.15625 337.16796875 C223.03507812 337.79445313 222.91390625 338.4209375 222.7890625 339.06640625 C222.62148438 339.88367188 222.45390625 340.7009375 222.28125 341.54296875 C222.11882812 342.35507812 221.95640625 343.1671875 221.7890625 344.00390625 C221.15625 346.16796875 221.15625 346.16796875 219.15625 348.16796875 C218.39365958 350.02156444 217.69142233 351.90047473 217.03125 353.79296875 C216.67804688 354.79585937 216.32484375 355.79875 215.9609375 356.83203125 C215.69539063 357.60289062 215.42984375 358.37375 215.15625 359.16796875 C214.49625 359.16796875 213.83625 359.16796875 213.15625 359.16796875 C212.89199219 359.88726563 212.62773438 360.6065625 212.35546875 361.34765625 C211.12891313 364.23225937 209.67988159 366.66949469 207.96875 369.29296875 C206.09621141 372.16934247 204.23376173 375.03985166 202.45703125 377.9765625 C198.94369937 383.75021979 195.09413032 388.69408997 190.48046875 393.62890625 C188.06535833 396.26726217 185.82835691 399.00067165 183.59375 401.79296875 C168.86440807 419.94892842 148.71770039 435.10419078 128.15625 446.16796875 C127.49625 446.16796875 126.83625 446.16796875 126.15625 446.16796875 C126.15625 446.82796875 126.15625 447.48796875 126.15625 448.16796875 C125.65480469 448.36390625 125.15335938 448.55984375 124.63671875 448.76171875 C118.60640504 451.14507953 112.62906985 453.64505244 106.65625 456.16796875 C104.97919515 456.87246365 103.30211252 457.5768924 101.625 458.28125 C99.19859216 459.30139885 96.78220489 460.33345219 94.375 461.3984375 C85.97990344 465.0195619 77.00849265 466.9900662 68.15625 469.16796875 C66.96773438 469.46960938 65.77921875 469.77125 64.5546875 470.08203125 C47.41779794 474.13108153 30.10847364 474.35008261 12.59375 474.35546875 C11.27408737 474.35696426 11.27408737 474.35696426 9.92776489 474.35848999 C7.3983722 474.35816553 4.86919931 474.34912229 2.33984375 474.3359375 C1.5740097 474.334729 0.80817566 474.33352051 0.01913452 474.33227539 C-3.43152095 474.30188129 -6.52783015 474.12099485 -9.84375 473.16796875 C-11.23063134 473.05969983 -12.62104469 472.99149379 -14.01171875 472.95703125 C-29.48833476 472.45191976 -43.93237334 470.45620983 -58.75 465.82177734 C-61.23576523 465.04555541 -63.72753765 464.28980334 -66.21875 463.53125 C-83.852872 458.09963022 -83.852872 458.09963022 -91.91796875 454.11328125 C-93.97766988 453.04879411 -93.97766988 453.04879411 -96.84375 452.16796875 C-96.84375 451.50796875 -96.84375 450.84796875 -96.84375 450.16796875 C-97.7925 450.02359375 -98.74125 449.87921875 -99.71875 449.73046875 C-102.84375 449.16796875 -102.84375 449.16796875 -104.84375 448.16796875 C-104.84375 447.50796875 -104.84375 446.84796875 -104.84375 446.16796875 C-105.66617188 446.10609375 -106.48859375 446.04421875 -107.3359375 445.98046875 C-111.91487368 444.91986883 -115.10587451 442.77345799 -118.96875 440.16796875 C-119.71648682 439.67248535 -120.46422363 439.17700195 -121.23461914 438.66650391 C-130.5276229 432.45522639 -139.32878651 425.86799862 -147.55078125 418.2734375 C-149.58464454 416.40588671 -151.66522023 414.62812655 -153.78125 412.85546875 C-168.46785362 400.04185304 -181.11824774 383.025506 -190.84375 366.16796875 C-190.84375 365.50796875 -190.84375 364.84796875 -190.84375 364.16796875 C-191.50375 364.16796875 -192.16375 364.16796875 -192.84375 364.16796875 C-193.50375 361.85796875 -194.16375 359.54796875 -194.84375 357.16796875 C-195.50375 357.16796875 -196.16375 357.16796875 -196.84375 357.16796875 C-197.15505859 356.32878906 -197.15505859 356.32878906 -197.47265625 355.47265625 C-199.45536045 350.31264782 -201.71015769 345.43814886 -204.28125 340.54296875 C-208.25862893 332.73393382 -212.84375 323.06159487 -212.84375 314.16796875 C-213.50375 314.16796875 -214.16375 314.16796875 -214.84375 314.16796875 C-216.85676173 304.83740053 -218.85714814 295.50419646 -220.84375 286.16796875 C-221.029375 285.29769043 -221.215 284.42741211 -221.40625 283.53076172 C-221.82922747 281.53615858 -222.24328215 279.53966832 -222.65625 277.54296875 C-222.86894531 276.51945312 -223.08164063 275.4959375 -223.30078125 274.44140625 C-224.56089899 266.84443741 -224.99569596 259.29335488 -224.9765625 251.6015625 C-224.97751923 250.72379654 -224.97847595 249.84603058 -224.97946167 248.94166565 C-224.98013722 247.09546842 -224.97832691 245.24926873 -224.97412109 243.40307617 C-224.96880957 240.636499 -224.97406408 237.87008755 -224.98046875 235.10351562 C-224.98711233 220.05917768 -224.98817103 205.13162522 -221.38867188 190.44238281 C-220.71378759 187.62552707 -220.08398659 184.79969419 -219.453125 181.97265625 C-212.83798223 152.47183515 -212.83798223 152.47183515 -206.9921875 141.41796875 C-205.96976346 139.41485227 -205.15577897 137.47178584 -204.40625 135.35546875 C-198.55991541 119.02605146 -198.55991541 119.02605146 -194.84375 117.16796875 C-194.16295967 115.56811149 -193.48643164 113.96630048 -192.83203125 112.35546875 C-190.90987131 108.10088547 -188.57801174 103.95328375 -185.84375 100.16796875 C-185.18375 100.16796875 -184.52375 100.16796875 -183.84375 100.16796875 C-183.76769531 99.63042969 -183.69164062 99.09289062 -183.61328125 98.5390625 C-179.62273726 86.24332544 -164.7622455 74.08646425 -155.84375 65.16796875 C-155.12058594 64.38679688 -154.39742188 63.605625 -153.65234375 62.80078125 C-141.11258347 49.53797054 -125.77142058 38.96945097 -109.84375 30.16796875 C-109.17279297 29.78946777 -108.50183594 29.4109668 -107.81054688 29.02099609 C-98.40460223 23.73178672 -88.98400016 19.42782901 -78.80126953 15.87402344 C-76.86580308 15.17592304 -74.96319952 14.42254521 -73.05859375 13.64453125 C-50.3953313 4.4782815 -24.41887426 0.02885126 0 0 Z " fill="#FCFCFD" transform="translate(438.84375,374.83203125)"/>
<path d="M0 0 C2.84958159 0.00538257 5.699007 0.00000919 8.54858398 -0.00634766 C21.37825973 -0.0127033 33.75447096 0.38234343 46.34350586 3.06787109 C47.16786133 3.23738281 47.9922168 3.40689453 48.84155273 3.58154297 C51.28223596 4.08657813 53.71929185 4.60655439 56.15600586 5.13037109 C56.94958496 5.29682129 57.74316406 5.46327148 58.56079102 5.63476562 C62.87267418 6.55777389 66.98910913 7.66571257 71.15600586 9.13037109 C72.24655273 9.46294922 73.33709961 9.79552734 74.46069336 10.13818359 C84.24771923 13.20064464 93.11024183 17.32972513 102.15600586 22.13037109 C103.15631836 22.64728516 104.15663086 23.16419922 105.18725586 23.69677734 C128.55057761 36.01623005 155.89104683 57.40918937 166.56225586 82.42724609 C167.24667572 84.67062229 167.81436795 86.81292729 168.15600586 89.13037109 C168.81600586 89.13037109 169.47600586 89.13037109 170.15600586 89.13037109 C173.30542683 97.32135527 175.8173608 105.23569399 177.48022461 113.87646484 C178.19852264 117.33509062 179.18557338 120.73385742 180.15600586 124.13037109 C180.48600586 130.40037109 180.81600586 136.67037109 181.15600586 143.13037109 C141.88600586 143.13037109 102.61600586 143.13037109 62.15600586 143.13037109 C61.49600586 139.17037109 60.83600586 135.21037109 60.15600586 131.13037109 C55.88353072 119.64639333 46.66154617 111.06954175 36.15600586 105.13037109 C23.75769505 99.67172913 12.78079952 98.95011638 -0.59399414 98.94287109 C-1.79926758 98.930625 -3.00454102 98.91837891 -4.24633789 98.90576172 C-5.4077832 98.90382813 -6.56922852 98.90189453 -7.76586914 98.89990234 C-8.81355469 98.89579346 -9.86124023 98.89168457 -10.94067383 98.88745117 C-13.95834588 99.13993887 -16.09964203 99.89259412 -18.84399414 101.13037109 C-20.29473832 101.47639665 -21.75364135 101.79014178 -23.21899414 102.06787109 C-35.05116793 104.64517628 -43.73946515 111.51835417 -50.40258789 121.45458984 C-55.44113133 130.8079835 -54.77940181 144.16213175 -52.72290039 154.32958984 C-49.59652402 164.2923092 -42.5845372 171.92731446 -33.60961914 176.93505859 C-30.0686073 178.77204741 -26.46241151 180.45168246 -22.84399414 182.13037109 C-21.87848633 182.60732422 -20.91297852 183.08427734 -19.91821289 183.57568359 C-14.32911452 186.27721595 -8.9505361 188.0248486 -2.86352539 189.25927734 C-0.32021729 189.99298718 1.42875031 190.77062861 3.71069336 192.02099609 C9.19677696 194.87183165 15.09435919 195.98971039 21.09350586 197.31787109 C23.35329754 197.82921082 25.61245283 198.34337415 27.87084961 198.86083984 C28.86205811 199.08151123 29.8532666 199.30218262 30.87451172 199.52954102 C33.15600586 200.13037109 33.15600586 200.13037109 34.15600586 201.13037109 C36.72967398 201.63591305 39.31474414 202.03017395 41.90600586 202.43505859 C45.31016513 203.16335228 48.47200917 204.21549313 51.7590332 205.34521484 C54.92153637 206.38112951 58.12323047 207.19532555 61.34643555 208.01855469 C92.63178887 216.06419211 125.51135877 227.47952797 150.15600586 249.13037109 C150.97069336 249.82517578 151.78538086 250.51998047 152.62475586 251.23583984 C173.38008078 269.3326895 173.38008078 269.3326895 176.15600586 281.13037109 C176.81600586 281.13037109 177.47600586 281.13037109 178.15600586 281.13037109 C184.88661402 293.96462666 187.92900067 305.91665428 188.94506836 320.40771484 C188.98012008 322.15979263 188.98012008 322.15979263 190.15600586 323.13037109 C191.52191178 346.84203871 188.99702911 367.39522994 180.97216797 389.72705078 C180.25135098 391.84961208 179.66048659 393.94777148 179.15600586 396.13037109 C178.49600586 396.13037109 177.83600586 396.13037109 177.15600586 396.13037109 C176.78475586 397.36787109 176.78475586 397.36787109 176.40600586 398.63037109 C171.76572367 411.62316122 162.63673807 424.12849927 153.15600586 434.13037109 C152.49600586 434.13037109 151.83600586 434.13037109 151.15600586 434.13037109 C150.82600586 435.12037109 150.49600586 436.11037109 150.15600586 437.13037109 C139.67770404 448.21153411 124.96527909 457.71751772 111.15600586 464.13037109 C110.49600586 464.13037109 109.83600586 464.13037109 109.15600586 464.13037109 C109.15600586 464.79037109 109.15600586 465.45037109 109.15600586 466.13037109 C106.84600586 466.46037109 104.53600586 466.79037109 102.15600586 467.13037109 C102.15600586 467.79037109 102.15600586 468.45037109 102.15600586 469.13037109 C77.17103123 480.10555226 49.28204795 485.27195238 22.10522461 485.29833984 C20.8888179 485.30166824 19.67241119 485.30499664 18.41914368 485.3084259 C15.8601621 485.3134605 13.30117403 485.31583531 10.7421875 485.31567383 C6.86504107 485.31785896 2.9881802 485.33604861 -0.88891602 485.35498047 C-3.39086818 485.35791554 -5.89282168 485.35989957 -8.39477539 485.36083984 C-10.10483513 485.37161812 -10.10483513 485.37161812 -11.84944153 485.38261414 C-19.99456299 485.35992805 -27.81237236 484.44880725 -35.84399414 483.13037109 C-37.44808536 482.881187 -39.052233 482.63236511 -40.65649414 482.38427734 C-42.05273806 482.15630926 -43.4485821 481.92587703 -44.84399414 481.69287109 C-45.5902002 481.56871826 -46.33640625 481.44456543 -47.10522461 481.31665039 C-54.06648817 480.13470283 -60.95745421 478.69146777 -67.84399414 477.13037109 C-67.84399414 476.47037109 -67.84399414 475.81037109 -67.84399414 475.13037109 C-68.81336914 475.00662109 -69.78274414 474.88287109 -70.78149414 474.75537109 C-80.76245616 473.25030539 -88.95131951 470.07486215 -98.07641602 465.91943359 C-100.30699973 464.92368131 -102.56656355 464.01309613 -104.84399414 463.13037109 C-104.84399414 462.47037109 -104.84399414 461.81037109 -104.84399414 461.13037109 C-105.88620117 460.98921875 -105.88620117 460.98921875 -106.94946289 460.84521484 C-110.4377207 459.98374227 -113.06140437 458.51062223 -116.15649414 456.69287109 C-117.22512695 456.07541016 -118.29375977 455.45794922 -119.39477539 454.82177734 C-120.20301758 454.26361328 -121.01125977 453.70544922 -121.84399414 453.13037109 C-121.84399414 452.47037109 -121.84399414 451.81037109 -121.84399414 451.13037109 C-122.71652832 450.96529053 -122.71652832 450.96529053 -123.60668945 450.796875 C-138.27218151 446.42795386 -153.1402085 426.52747375 -160.84399414 414.13037109 C-162.16821289 411.16552734 -162.16821289 411.16552734 -162.84399414 409.13037109 C-163.50399414 409.13037109 -164.16399414 409.13037109 -164.84399414 409.13037109 C-165.09793945 408.48970703 -165.35188477 407.84904297 -165.61352539 407.18896484 C-165.95770508 406.32400391 -166.30188477 405.45904297 -166.65649414 404.56787109 C-166.99293945 403.72095703 -167.32938477 402.87404297 -167.67602539 402.00146484 C-168.75979695 399.33734412 -169.88555517 396.69392244 -171.02099609 394.05151367 C-172.55721277 390.46548904 -174.06200218 386.86927826 -175.53149414 383.25537109 C-175.85182617 382.50384766 -176.1721582 381.75232422 -176.50219727 380.97802734 C-178.72381484 375.45477342 -179.15738418 371.07886877 -178.84399414 365.13037109 C-179.50399414 365.13037109 -180.16399414 365.13037109 -180.84399414 365.13037109 C-181.86360071 357.61077262 -181.84399414 350.89120987 -181.84399414 343.13037109 C-142.57399414 343.13037109 -103.30399414 343.13037109 -62.84399414 343.13037109 C-61.85399414 348.57537109 -61.85399414 348.57537109 -60.84399414 354.13037109 C-60.18399414 354.13037109 -59.52399414 354.13037109 -58.84399414 354.13037109 C-58.69446289 354.76201172 -58.54493164 355.39365234 -58.39086914 356.04443359 C-56.44288043 362.6714148 -53.41742905 367.40163912 -48.96899414 372.56787109 C-48.46335937 373.15842285 -47.95772461 373.74897461 -47.43676758 374.35742188 C-42.94289239 379.39465529 -38.16968522 382.72058402 -31.84399414 385.13037109 C-30.52675385 385.78762197 -29.21463934 386.45519938 -27.90649414 387.13037109 C-17.20851517 392.50935491 -6.71837829 392.28982677 5.03100586 392.25537109 C6.34198242 392.25923828 7.65295898 392.26310547 9.00366211 392.26708984 C27.04579676 392.24899342 41.33146179 389.57469835 55.39819336 377.14990234 C63.93106201 367.976153 66.60927652 356.37815675 66.42163086 344.13427734 C66.01574553 339.54419173 64.66821795 335.45545439 63.15600586 331.13037109 C62.80769523 329.80087172 62.46926445 328.46856314 62.15600586 327.13037109 C61.49600586 327.13037109 60.83600586 327.13037109 60.15600586 327.13037109 C59.94331055 326.56189453 59.73061523 325.99341797 59.51147461 325.40771484 C57.67729605 322.32608344 55.36629084 320.79076561 52.46850586 318.69287109 C51.65603394 318.1019165 51.65603394 318.1019165 50.82714844 317.49902344 C49.27375035 316.37109609 47.71501354 315.25053214 46.15600586 314.13037109 C45.46249023 313.60572266 44.76897461 313.08107422 44.05444336 312.54052734 C37.6364138 307.71967866 30.22331899 305.36157217 22.71850586 302.75537109 C21.84613281 302.45083008 20.97375977 302.14628906 20.07495117 301.83251953 C13.33716609 299.49822678 6.55964751 297.33317346 -0.26586914 295.27099609 C-3.84399414 294.13037109 -3.84399414 294.13037109 -7.54711914 292.64990234 C-12.82744542 290.63755953 -18.31325753 289.65279901 -23.84399414 288.56787109 C-30.55364303 287.22677172 -37.22193526 285.85751866 -43.84399414 284.13037109 C-43.84399414 283.47037109 -43.84399414 282.81037109 -43.84399414 282.13037109 C-44.81336914 282.15099609 -45.78274414 282.17162109 -46.78149414 282.19287109 C-49.84399414 282.13037109 -49.84399414 282.13037109 -50.84399414 281.13037109 C-51.99899414 281.00662109 -53.15399414 280.88287109 -54.34399414 280.75537109 C-57.42357617 280.40474419 -60.14858811 279.79084756 -63.07446289 278.77099609 C-63.85805176 278.50174316 -64.64164063 278.23249023 -65.44897461 277.95507812 C-66.23933105 277.6829248 -67.0296875 277.41077148 -67.84399414 277.13037109 C-69.30785312 276.65079221 -70.77268204 276.17416251 -72.23852539 275.70068359 C-80.94313602 272.86397829 -89.48836647 269.89543705 -97.84399414 266.13037109 C-98.54105469 265.82260742 -99.23811523 265.51484375 -99.95629883 265.19775391 C-131.64517189 251.13606687 -157.21815088 229.72758075 -170.84399414 197.13037109 C-171.17286621 196.44031982 -171.50173828 195.75026855 -171.84057617 195.03930664 C-178.73265241 180.46213284 -179.22170557 164.06198648 -179.21899414 148.19287109 C-179.22080688 147.51184326 -179.22261963 146.83081543 -179.2244873 146.12915039 C-179.22046061 132.77502528 -178.83806815 119.37671825 -173.12133789 107.11474609 C-171.73167828 103.86795727 -170.88755912 100.67963102 -170.03149414 97.25537109 C-167.87024939 89.3511413 -164.1386277 83.02460258 -159.84399414 76.13037109 C-159.2987207 75.18419922 -158.75344727 74.23802734 -158.19165039 73.26318359 C-153.77801194 65.81719208 -148.22173823 59.73987946 -142.22631836 53.55957031 C-141.06486313 52.35872981 -139.92276003 51.13921409 -138.78540039 49.91552734 C-124.35061347 34.73571916 -105.81513064 23.84989456 -86.78149414 15.50537109 C-86.11311523 15.20630859 -85.44473633 14.90724609 -84.75610352 14.59912109 C-78.9634334 12.0546246 -73.27933841 9.74035023 -66.84399414 10.13037109 C-66.84399414 9.47037109 -66.84399414 8.81037109 -66.84399414 8.13037109 C-65.0302832 7.74945313 -65.0302832 7.74945313 -63.17993164 7.36083984 C-62.39457031 7.19559814 -61.60920898 7.03035645 -60.80004883 6.86010742 C-59.06398772 6.49539008 -57.327654 6.13196821 -55.59106445 5.76977539 C-51.71510626 4.95888602 -47.84901614 4.13154255 -43.99243164 3.23193359 C-29.47275359 -0.139302 -14.82554525 -0.03329569 0 0 Z " fill="#FDFCFD" transform="translate(869.843994140625,372.86962890625)"/>
<path d="M0 0 C0.98625867 3.2947112 1.12894533 6.28691334 1.1328125 9.71875 C1.13410156 10.81574219 1.13539062 11.91273438 1.13671875 13.04296875 C1.13285156 14.18378906 1.12898438 15.32460938 1.125 16.5 C1.12886719 17.64082031 1.13273437 18.78164063 1.13671875 19.95703125 C1.13542969 21.05402344 1.13414063 22.15101563 1.1328125 23.28125 C1.13168457 24.28220703 1.13055664 25.28316406 1.12939453 26.31445312 C1 29 1 29 0.5115509 30.87463379 C-0.04469934 33.1857146 -0.20827575 35.31718375 -0.31420898 37.69140625 C-0.35586685 38.62210938 -0.39752472 39.5528125 -0.44044495 40.51171875 C-0.47943405 41.51847656 -0.51842316 42.52523437 -0.55859375 43.5625 C-0.60084579 44.61953125 -0.64309784 45.6765625 -0.68663025 46.765625 C-1.13908594 59.1763579 -1.10975699 71.58300334 -1.0625 84 C-1.0574649 86.34765527 -1.05290562 88.69531162 -1.04882812 91.04296875 C-1.03800481 96.69533656 -1.02143246 102.34766295 -1 108 C-1.66 108 -2.32 108 -3 108 C-3 82.26 -3 56.52 -3 30 C-2.34 30 -1.68 30 -1 30 C-1.00523682 29.19780029 -1.01047363 28.39560059 -1.01586914 27.5690918 C-1.03662897 23.94190247 -1.04965702 20.31472563 -1.0625 16.6875 C-1.07087891 15.42486328 -1.07925781 14.16222656 -1.08789062 12.86132812 C-1.09111328 11.65283203 -1.09433594 10.44433594 -1.09765625 9.19921875 C-1.10289307 8.08377686 -1.10812988 6.96833496 -1.11352539 5.8190918 C-1 3 -1 3 0 0 Z " fill="#4E3DDD" transform="translate(24,556)"/>
<path d="M0 0 C2.58340384 -0.02703562 5.16652308 -0.04685611 7.75 -0.0625 C8.47960937 -0.07087891 9.20921875 -0.07925781 9.9609375 -0.08789062 C13.50624148 -0.10400564 16.58427703 0.13842857 20 1 C22.76016528 1.09568236 25.49401141 1.14004136 28.25390625 1.1328125 C29.4762925 1.13424759 29.4762925 1.13424759 30.72337341 1.13571167 C32.45580116 1.1363922 34.18823145 1.13454677 35.9206543 1.13037109 C38.50120222 1.12512462 41.08156762 1.13026553 43.66210938 1.13671875 C55.13727717 1.14084399 66.54781766 0.71408395 78 0 C78 0.33 78 0.66 78 1 C69.68334571 2.64006537 61.73673528 3.28607022 53.26953125 3.23046875 C51.53397224 3.22978142 51.53397224 3.22978142 49.76335144 3.2290802 C47.34409546 3.22608327 44.92484096 3.21827494 42.50561523 3.20581055 C38.784274 3.18736005 35.06317944 3.18530255 31.34179688 3.18554688 C28.98437283 3.18063801 26.62695047 3.17481247 24.26953125 3.16796875 C23.15302689 3.16685593 22.03652252 3.1657431 20.88618469 3.16459656 C19.86389267 3.15821671 18.84160065 3.15183685 17.78833008 3.14526367 C16.88520584 3.14145187 15.9820816 3.13764008 15.05158997 3.13371277 C13 3 13 3 12 2 C9.98405418 1.76572222 7.961526 1.58663876 5.9375 1.4375 C4.83277344 1.35371094 3.72804688 1.26992188 2.58984375 1.18359375 C1.73519531 1.12300781 0.88054687 1.06242188 0 1 C0 0.67 0 0.34 0 0 Z " fill="#9F89EB" transform="translate(413,847)"/>
<path d="M0 0 C0.33 0 0.66 0 1 0 C1.4375 2.5625 1.4375 2.5625 1 6 C-0.58367963 7.94128471 -2.29086062 9.54358255 -4.17578125 11.19140625 C-6.28076077 13.27835597 -7.52790326 15.43149787 -9 18 C-10.21425994 19.78108792 -11.44346828 21.55207776 -12.6875 23.3125 C-13.62142578 24.63701172 -13.62142578 24.63701172 -14.57421875 25.98828125 C-15.27998047 26.98408203 -15.27998047 26.98408203 -16 28 C-16.66 27.34 -17.32 26.68 -18 26 C-17.60167969 25.49210937 -17.20335937 24.98421875 -16.79296875 24.4609375 C-13.71433825 20.46096502 -11.08404386 16.63120857 -9 12 C-8.34 12 -7.68 12 -7 12 C-7 11.34 -7 10.68 -7 10 C-6.34 10 -5.68 10 -5 10 C-4.566875 9.071875 -4.566875 9.071875 -4.125 8.125 C-3 6 -3 6 -1 4 C-0.3574765 1.93125966 -0.3574765 1.93125966 0 0 Z " fill="#483FE9" transform="translate(160,231)"/>
<path d="M0 0 C0.33 0 0.66 0 1 0 C0.25 6.625 0.25 6.625 -2 10 C-3.5154336 13.11529246 -4.99427671 16.24610429 -6.46484375 19.3828125 C-8 22 -8 22 -11 23 C-11 23.99 -11 24.98 -11 26 C-11.66 25.67 -12.32 25.34 -13 25 C-12.505 23.515 -12.505 23.515 -12 22 C-11.34 22 -10.68 22 -10 22 C-9.87625 21.29875 -9.7525 20.5975 -9.625 19.875 C-8.96161655 16.82343613 -8.02788045 13.94659062 -7 11 C-6.34 11 -5.68 11 -5 11 C-5 10.01 -5 9.02 -5 8 C-4.34 8 -3.68 8 -3 8 C-3 7.01 -3 6.02 -3 5 C-2.34 5 -1.68 5 -1 5 C-0.67 3.35 -0.34 1.7 0 0 Z " fill="#4037D0" transform="translate(94,333)"/>
<path d="M0 0 C0.33 0.99 0.66 1.98 1 3 C-1.95452257 8.48016282 -6.32587004 12.55959157 -10.75 16.875 C-11.44738281 17.56335937 -12.14476562 18.25171875 -12.86328125 18.9609375 C-14.57103343 20.64529582 -16.28329443 22.32477617 -18 24 C-18.33 23.34 -18.66 22.68 -19 22 C-18.67 21.34 -18.34 20.68 -18 20 C-17.34 20 -16.68 20 -16 20 C-15.6596875 19.13375 -15.6596875 19.13375 -15.3125 18.25 C-13.66511725 15.42591529 -11.56545162 14.0023037 -9 12 C-8.443125 11.2575 -7.88625 10.515 -7.3125 9.75 C-6.879375 9.1725 -6.44625 8.595 -6 8 C-5.34 8 -4.68 8 -4 8 C-3.71125 7.05125 -3.4225 6.1025 -3.125 5.125 C-2 2 -2 2 0 0 Z " fill="#7133E9" transform="translate(1080,1025)"/>
<path d="M0 0 C0.66 0.33 1.32 0.66 2 1 C-5.92 8.92 -13.84 16.84 -22 25 C-22.66 24.67 -23.32 24.34 -24 24 C-16 16 -8 8 0 0 Z " fill="#E3DDFC" transform="translate(294,429)"/>
<path d="M0 0 C0 3.92709135 -1.27900462 4.8189713 -3.875 7.6875 C-4.59429687 8.49574219 -5.31359375 9.30398437 -6.0546875 10.13671875 C-8 12 -8 12 -10 12 C-10.268125 12.598125 -10.53625 13.19625 -10.8125 13.8125 C-12.0141235 16.02601698 -13.1973487 17.26668144 -15 19 C-16.34736973 20.65533995 -17.68334336 22.32012773 -19 24 C-19.66 23.67 -20.32 23.34 -21 23 C-20.566875 22.608125 -20.13375 22.21625 -19.6875 21.8125 C-17.92004715 20.07147921 -17.92004715 20.07147921 -16.875 17.875 C-14.20478089 13.78066402 -10.8001318 10.59046473 -7.3125 7.1875 C-6.61060547 6.49462891 -5.90871094 5.80175781 -5.18554688 5.08789062 C-3.46148959 3.38728991 -1.73292722 1.69155339 0 0 Z " fill="#473DE7" transform="translate(192,197)"/>
<path d="M0 0 C-5.36190101 2.61407872 -10.03435204 4.49228528 -16 5 C-16 5.66 -16 6.32 -16 7 C-18.64 7.33 -21.28 7.66 -24 8 C-22.32103622 4.64207243 -18.49711869 4.1426659 -15.125 2.9375 C-14.39152344 2.66873047 -13.65804687 2.39996094 -12.90234375 2.12304688 C-3.83242513 -1.18937331 -3.83242513 -1.18937331 0 0 Z " fill="#6C2FE5" transform="translate(849,1192)"/>
<path d="M0 0 C0.66 0 1.32 0 2 0 C2.35368021 7.12600133 1.95671348 12.47059106 -1 19 C-1.33 19 -1.66 19 -2 19 C-2.125 12.25 -2.125 12.25 -1 10 C-0.77377919 8.29636178 -0.59111527 6.58671299 -0.4375 4.875 C-0.35371094 3.96492187 -0.26992188 3.05484375 -0.18359375 2.1171875 C-0.12300781 1.41851563 -0.06242187 0.71984375 0 0 Z " fill="#483DDC" transform="translate(30,513)"/>
<path d="M0 0 C1.95143115 2.86975169 1.98930952 4.12614763 1.6875 7.6875 C1 11 1 11 0 12 C-0.2165625 13.7325 -0.2165625 13.7325 -0.4375 15.5 C-0.623125 16.655 -0.80875 17.81 -1 19 C-1.66 19.33 -2.32 19.66 -3 20 C-3 17.03 -3 14.06 -3 11 C-2.34 11 -1.68 11 -1 11 C-1.020625 9.9275 -1.04125 8.855 -1.0625 7.75 C-1.0142016 4.85209576 -0.86844115 2.71387859 0 0 Z " fill="#463ED6" transform="translate(42,462)"/>
<path d="M0 0 C0 0.99 0 1.98 0 3 C-0.56589844 3.13277344 -1.13179688 3.26554687 -1.71484375 3.40234375 C-2.81505859 3.66724609 -2.81505859 3.66724609 -3.9375 3.9375 C-4.66839844 4.11152344 -5.39929688 4.28554688 -6.15234375 4.46484375 C-7.99969898 4.83887569 -7.99969898 4.83887569 -9 6 C-11.33297433 6.04092937 -13.66705225 6.04241723 -16 6 C-16 5.34 -16 4.68 -16 4 C-14.88625 3.87625 -13.7725 3.7525 -12.625 3.625 C-8.96896323 3.3534187 -8.96896323 3.3534187 -7 1 C-4.67724823 0.59952556 -2.34260643 0.2602896 0 0 Z " fill="#473CD9" transform="translate(470,32)"/>
<path d="M0 0 C2.4411233 6.10280825 -1.77889887 13.24532889 -4 19 C-5.25552169 15.42724029 -4.72908409 13.09371195 -3.6875 9.5 C-3.42324219 8.5615625 -3.15898438 7.623125 -2.88671875 6.65625 C-2.09751939 4.29212856 -1.18208546 2.18866479 0 0 Z " fill="#6D38EB" transform="translate(1205,800)"/>
<path d="M0 0 C0.66 0.66 1.32 1.32 2 2 C1.01 3.485 1.01 3.485 0 5 C-0.60299434 7.85584819 -1.01311613 10.71423652 -1.4375 13.6015625 C-1.623125 14.39304687 -1.80875 15.18453125 -2 16 C-2.66 16.33 -3.32 16.66 -4 17 C-4.22577402 11.5814234 -3.46670113 7.22512279 -2 2 C-1.34 2 -0.68 2 0 2 C0 1.34 0 0.68 0 0 Z " fill="#4C3EDB" transform="translate(37,489)"/>
<path d="M0 0 C0.33 0 0.66 0 1 0 C1.5 2.5 1.5 2.5 1 6 C-1.41377734 8.95370122 -4.13904999 11.48389665 -7 14 C-7.99 13.67 -8.98 13.34 -10 13 C-9.01 12.67 -8.02 12.34 -7 12 C-7 11.34 -7 10.68 -7 10 C-6.34 10 -5.68 10 -5 10 C-4.71125 9.38125 -4.4225 8.7625 -4.125 8.125 C-3 6 -3 6 -1 4 C-0.3574765 1.93125966 -0.3574765 1.93125966 0 0 Z " fill="#3D34CA" transform="translate(160,231)"/>
<path d="M0 0 C0.33 0 0.66 0 1 0 C1.18153682 4.62918896 0.84000043 7.77882254 -1 12 C-1.37593066 13.9924325 -1.71979545 15.9918674 -2 18 C-2.33 18 -2.66 18 -3 18 C-3.31985731 11.28299653 -2.4793824 6.24273068 0 0 Z " fill="#6532D8" transform="translate(1209,786)"/>
<path d="M0 0 C0.66 0 1.32 0 2 0 C0.63112619 3.71551463 -0.31822873 6.04699628 -3.875 8.0625 C-5.91030608 8.96042915 -7.82920518 9.53482968 -10 10 C-10 9.34 -10 8.68 -10 8 C-9.34 8 -8.68 8 -8 8 C-8 7.34 -8 6.68 -8 6 C-6.02 5.34 -4.04 4.68 -2 4 C-2 3.34 -2 2.68 -2 2 C-1.34 2 -0.68 2 0 2 C0 1.34 0 0.68 0 0 Z " fill="#3F35D2" transform="translate(231,159)"/>
<path d="M0 0 C0.8125 1.6875 0.8125 1.6875 1 4 C-1.3125 6.625 -1.3125 6.625 -4 9 C-4.66 9.66 -5.32 10.32 -6 11 C-8.125 10.625 -8.125 10.625 -10 10 C-9.195625 9.38125 -8.39125 8.7625 -7.5625 8.125 C-4.96125481 6.25835959 -4.96125481 6.25835959 -4 4 C-3.34 4 -2.68 4 -2 4 C-1.34 2.68 -0.68 1.36 0 0 Z " fill="#4238D5" transform="translate(205,183)"/>
<path d="M0 0 C0 0.66 0 1.32 0 2 C1.1446875 2.2165625 1.1446875 2.2165625 2.3125 2.4375 C5 3 5 3 8 4 C8.33 4.99 8.66 5.98 9 7 C7.68 7 6.36 7 5 7 C5 6.34 5 5.68 5 5 C2.03 4.505 2.03 4.505 -1 4 C-1 3.34 -1 2.68 -1 2 C-1.99 1.67 -2.98 1.34 -4 1 C-2 0 -2 0 0 0 Z " fill="#5934CB" transform="translate(381,1179)"/>
<path d="M0 0 C0.33 0.99 0.66 1.98 1 3 C0.00390625 4.82421875 0.00390625 4.82421875 -1.4375 6.6875 C-1.91058594 7.31011719 -2.38367188 7.93273437 -2.87109375 8.57421875 C-3.24363281 9.04472656 -3.61617187 9.51523437 -4 10 C-4.99 9.67 -5.98 9.34 -7 9 C-6.34 9 -5.68 9 -5 9 C-4.87625 7.88625 -4.87625 7.88625 -4.75 6.75 C-3.8603054 3.48778646 -2.51496251 2.19045122 0 0 Z " fill="#4439DA" transform="translate(137,264)"/>
<path d="M0 0 C0 0.66 0 1.32 0 2 C-0.61875 2.0825 -1.2375 2.165 -1.875 2.25 C-4.17469437 2.78131326 -4.17469437 2.78131326 -4.9375 4.9375 C-6 7 -6 7 -8.625 8.25 C-9.40875 8.4975 -10.1925 8.745 -11 9 C-11 7 -11 7 -9.35546875 5.2734375 C-8.64003906 4.64695313 -7.92460937 4.02046875 -7.1875 3.375 C-6.47980469 2.74335938 -5.77210938 2.11171875 -5.04296875 1.4609375 C-3 0 -3 0 0 0 Z " fill="#4137DF" transform="translate(244,150)"/>
<path d="M0 0 C0.66 0.33 1.32 0.66 2 1 C-0.31 3.64 -2.62 6.28 -5 9 C-5.99 8.67 -6.98 8.34 -8 8 C-5.36 5.36 -2.72 2.72 0 0 Z " fill="#826CED" transform="translate(370,510)"/>
<path d="M0 0 C0.33 1.32 0.66 2.64 1 4 C-0.21484375 5.703125 -0.21484375 5.703125 -1.9375 7.25 C-2.50339844 7.77078125 -3.06929687 8.2915625 -3.65234375 8.828125 C-4.09707031 9.21484375 -4.54179688 9.6015625 -5 10 C-5.66 9.67 -6.32 9.34 -7 9 C-4.69 6.03 -2.38 3.06 0 0 Z " fill="#8563EC" transform="translate(632,764)"/>
<path d="M0 0 C0.66 0.33 1.32 0.66 2 1 C1.67 3.31 1.34 5.62 1 8 C0.01 8.33 -0.98 8.66 -2 9 C-2.33 9.99 -2.66 10.98 -3 12 C-2.49202991 7.6822542 -1.80317221 3.96697886 0 0 Z " fill="#4039CB" transform="translate(63,399)"/>
<path d="M0 0 C0 0.66 0 1.32 0 2 C-3.63 2 -7.26 2 -11 2 C-10.67 1.34 -10.34 0.68 -10 0 C-6.35346727 -1.11421833 -3.66708957 -0.94296589 0 0 Z " fill="#6936E3" transform="translate(738,1223)"/>
<path d="M0 0 C-4.455 2.97 -4.455 2.97 -9 6 C-9.66 5.34 -10.32 4.68 -11 4 C-9.92892883 3.13050683 -8.84254056 2.27985795 -7.75 1.4375 C-7.14671875 0.96183594 -6.5434375 0.48617188 -5.921875 -0.00390625 C-4 -1 -4 -1 0 0 Z " fill="#6B2EE1" transform="translate(970,1128)"/>
<path d="M0 0 C0.33 0.99 0.66 1.98 1 3 C-0.98 4.98 -2.96 6.96 -5 9 C-5.66 8.67 -6.32 8.34 -7 8 C-4.69 5.36 -2.38 2.72 0 0 Z " fill="#8A67ED" transform="translate(624,774)"/>
<path d="M0 0 C0.99 0.33 1.98 0.66 3 1 C1.83857315 5.35535069 0.92300495 7.64619703 -3 10 C-3 9.01 -3 8.02 -3 7 C-2.34 7 -1.68 7 -1 7 C-0.67 4.69 -0.34 2.38 0 0 Z " fill="#3E36C7" transform="translate(73,374)"/>
<path d="M0 0 C0 4.31618166 -2.13270348 5.92789659 -5 9 C-5.66 9 -6.32 9 -7 9 C-7 8.34 -7 7.68 -7 7 C-6.34 7 -5.68 7 -5 7 C-4.731875 6.401875 -4.46375 5.80375 -4.1875 5.1875 C-3.01506533 3.02775192 -1.80630718 1.64209744 0 0 Z " fill="#8E66F0" transform="translate(1028,800)"/>
<path d="M0 0 C0.33 0.99 0.66 1.98 1 3 C-2.21451269 4.60725635 -5.43612536 4.05748185 -9 4 C-6.06279492 2.47700477 -3.0831351 1.19899698 0 0 Z " fill="#3F31C8" transform="translate(441,40)"/>
<path d="M0 0 C0 0.33 0 0.66 0 1 C-1.43344 1.53190541 -2.87195367 2.05015258 -4.3125 2.5625 C-5.51326172 2.99755859 -5.51326172 2.99755859 -6.73828125 3.44140625 C-9 4 -9 4 -12 3 C-11.34 3 -10.68 3 -10 3 C-10 2.34 -10 1.68 -10 1 C-6.52674819 -0.1577506 -3.63932552 -0.06866652 0 0 Z " fill="#5C2DCA" transform="translate(825,1201)"/>
<path d="M0 0 C0.66 0 1.32 0 2 0 C0.50902342 3.7952131 -1.75700849 5.61042731 -5 8 C-4.6875 6.0625 -4.6875 6.0625 -4 4 C-3.01 3.67 -2.02 3.34 -1 3 C-0.67 2.01 -0.34 1.02 0 0 Z " fill="#632BD4" transform="translate(1043,1065)"/>
<path d="M0 0 C1 3 1 3 0.22265625 4.82421875 C-0.8515625 6.54947917 -1.92578125 8.27473958 -3 10 C-3.33 10 -3.66 10 -4 10 C-4.20086443 6.28400809 -4.1519437 5.22791555 -2 2 C-1.34 2 -0.68 2 0 2 C0 1.34 0 0.68 0 0 Z " fill="#473DE4" transform="translate(165,226)"/>
<path d="M0 0 C0.33 0.99 0.66 1.98 1 3 C-1.8125 4.5625 -1.8125 4.5625 -5 6 C-5.99 5.67 -6.98 5.34 -8 5 C-5 3 -5 3 -2 3 C-2 2.34 -2 1.68 -2 1 C-1.34 0.67 -0.68 0.34 0 0 Z " fill="#4236CB" transform="translate(311,100)"/>
<path d="M0 0 C2.75 0.25 2.75 0.25 5 1 C2.64031256 3.09749995 1.45383006 3.96905704 -1.75 4.1875 C-2.86375 4.0946875 -2.86375 4.0946875 -4 4 C-2.3125 1.9375 -2.3125 1.9375 0 0 Z " fill="#4438D0" transform="translate(340,83)"/>
<path d="M0 0 C0.8125 1.6875 0.8125 1.6875 1 4 C-1.4375 6.75 -1.4375 6.75 -4 9 C-2.25 2.25 -2.25 2.25 0 0 Z " fill="#8265E8" transform="translate(659,721)"/>
<path d="M0 0 C0.33 0 0.66 0 1 0 C1.125 7.625 1.125 7.625 0 11 C-0.66 11 -1.32 11 -2 11 C-1.40049704 7.31733897 -0.75241109 3.65456815 0 0 Z " fill="#413ACB" transform="translate(47,445)"/>
<path d="M0 0 C-3 2 -3 2 -6 2 C-6 2.66 -6 3.32 -6 4 C-6.99 4 -7.98 4 -9 4 C-8.67 3.01 -8.34 2.02 -8 1 C-5.29120665 -0.35439668 -2.99066732 -0.06501451 0 0 Z " fill="#5D2DC2" transform="translate(899,1170)"/>
<path d="M0 0 C0.33 1.32 0.66 2.64 1 4 C-1.97 6.475 -1.97 6.475 -5 9 C-3.50163895 5.88801935 -1.80066242 2.9465385 0 0 Z " fill="#8E75EE" transform="translate(646,744)"/>
</svg>
