<?xml version="1.0" encoding="UTF-8"?>
<svg version="1.1" xmlns="http://www.w3.org/2000/svg" width="500" height="500">
<path d="M0 0 C0.67627441 0.10183594 1.35254883 0.20367187 2.04931641 0.30859375 C45.16781755 6.82008029 84.30952869 24.35361707 118.1796875 51.72265625 C119.87557636 53.09205127 121.60259844 54.42577037 123.3828125 55.68359375 C123.91648437 56.11800781 124.45015625 56.55242188 125 57 C125 57.66 125 58.32 125 59 C125.87047974 59.38369751 125.87047974 59.38369751 126.75854492 59.77514648 C129.2223054 61.12147982 130.87657271 62.6178778 132.86328125 64.59765625 C133.94706055 65.67756836 133.94706055 65.67756836 135.05273438 66.77929688 C135.79845703 67.53275391 136.54417969 68.28621094 137.3125 69.0625 C138.04662109 69.78888672 138.78074219 70.51527344 139.53710938 71.26367188 C153 84.77434561 153 84.77434561 153 89 C153.66 89 154.32 89 155 89 C156.26171875 90.38256836 156.26171875 90.38256836 157.6875 92.33984375 C158.21641846 93.06445801 158.74533691 93.78907227 159.2902832 94.53564453 C159.85448975 95.32825684 160.41869629 96.12086914 161 96.9375 C161.87241333 98.15735596 161.87241333 98.15735596 162.76245117 99.40185547 C177.97188142 120.96158259 189.40472731 144.76771072 197.3359375 169.90136719 C197.91876321 171.74326784 198.52037756 173.57920133 199.125 175.4140625 C209.27458588 208.0037484 210.2363327 244.36894654 206 278 C205.88172852 278.95197266 205.76345703 279.90394531 205.64160156 280.88476562 C203.55327336 296.90059563 199.3831862 311.79716686 194 327 C193.71785645 327.82193848 193.43571289 328.64387695 193.14501953 329.49072266 C188.86398347 341.89340583 182.87190815 353.17806884 176.38769531 364.5625 C175.15843032 366.72171564 173.94683514 368.88949675 172.7421875 371.0625 C169.33959583 377.09889693 169.33959583 377.09889693 168 379 C167.34 379 166.68 379 166 379 C165.64421875 380.04800781 165.64421875 380.04800781 165.28125 381.1171875 C163.7623217 384.53477618 161.78390729 387.16630192 159.5 390.125 C157.25337435 393.04998988 155.04601541 395.93097688 153 399 C152.34 399 151.68 399 151 399 C150.74992187 399.5671875 150.49984375 400.134375 150.2421875 400.71875 C144.18719506 411.83861032 130.93069558 423.22815129 121 431 C120.34 431 119.68 431 119 431 C119 431.66 119 432.32 119 433 C117.5390625 434.2890625 117.5390625 434.2890625 115.625 435.625 C114.99851562 436.07101562 114.37203125 436.51703125 113.7265625 436.9765625 C112 438 112 438 110 438 C110 438.66 110 439.32 110 440 C108.1015625 441.5078125 108.1015625 441.5078125 105.625 443.125 C104.81289063 443.66382813 104.00078125 444.20265625 103.1640625 444.7578125 C101 446 101 446 99 446 C99 446.66 99 447.32 99 448 C96.76171875 449.515625 96.76171875 449.515625 93.6875 451.25 C92.57761719 451.87648438 91.46773438 452.50296875 90.32421875 453.1484375 C88.67873047 454.06496094 88.67873047 454.06496094 87 455 C86.16082031 455.48726563 85.32164062 455.97453125 84.45703125 456.4765625 C58.39323009 471.31096761 29.43189056 480.01426991 0 485 C-0.71978027 485.12294434 -1.43956055 485.24588867 -2.18115234 485.37255859 C-24.87205801 489.04548767 -49.50185829 488.33503821 -72 484 C-74.0898332 483.62103554 -76.17967753 483.24213251 -78.26953125 482.86328125 C-90.11522778 480.65805023 -101.66195974 478.1342708 -113 474 C-114.28656494 473.5361792 -114.28656494 473.5361792 -115.59912109 473.06298828 C-129.32139288 468.05945769 -142.3120817 462.23629291 -155 455 C-156.13308594 454.35546875 -157.26617187 453.7109375 -158.43359375 453.046875 C-165.09919819 449.08579171 -171.43271322 444.67771316 -177.75 440.1875 C-178.94991577 439.34191528 -178.94991577 439.34191528 -180.17407227 438.47924805 C-180.91584717 437.94340088 -181.65762207 437.40755371 -182.421875 436.85546875 C-183.08799805 436.37746826 -183.75412109 435.89946777 -184.44042969 435.40698242 C-186 434 -186 434 -187 431 C-187.56203125 430.87496094 -188.1240625 430.74992187 -188.703125 430.62109375 C-192.10195278 429.70202297 -194.23951468 427.41154992 -196.75 425.0625 C-197.50990234 424.37897461 -197.50990234 424.37897461 -198.28515625 423.68164062 C-199.56785768 422.50093297 -200.78935193 421.25448188 -202 420 C-202 419.34 -202 418.68 -202 418 C-202.66 418 -203.32 418 -204 418 C-204 417.34 -204 416.68 -204 416 C-204.66 416 -205.32 416 -206 416 C-206 415.34 -206 414.68 -206 414 C-206.66 414 -207.32 414 -208 414 C-208 413.34 -208 412.68 -208 412 C-208.84304687 411.67515625 -208.84304687 411.67515625 -209.703125 411.34375 C-212.77036765 409.54930872 -214.52660572 407.26107786 -216.75 404.5 C-217.94882813 403.03046875 -217.94882813 403.03046875 -219.171875 401.53125 C-221 399 -221 399 -221 397 C-221.99 396.67 -222.98 396.34 -224 396 C-225.44213867 394.35766602 -225.44213867 394.35766602 -226.91796875 392.25390625 C-227.44970703 391.49916016 -227.98144531 390.74441406 -228.52929688 389.96679688 C-229.07650391 389.17337891 -229.62371094 388.37996094 -230.1875 387.5625 C-230.74630859 386.77294922 -231.30511719 385.98339844 -231.88085938 385.16992188 C-236 379.27034684 -236 379.27034684 -236 377 C-236.66 377 -237.32 377 -238 377 C-243.1973681 369.51249873 -247.16780681 360.9914107 -251.125 352.80761719 C-251.99209356 351.0163335 -252.87099902 349.23078324 -253.75 347.4453125 C-272.55246672 308.75965693 -276.44443101 269.30866271 -276 227 C-275.99806641 226.12424316 -275.99613281 225.24848633 -275.99414062 224.34619141 C-275.90060956 203.25961225 -269.59928985 181.88959005 -263 162 C-262.7848877 161.34370605 -262.56977539 160.68741211 -262.34814453 160.01123047 C-258.16162902 147.36017541 -252.51369762 135.598293 -246 124 C-245.29976745 122.71539585 -244.60061936 121.43020019 -243.90234375 120.14453125 C-240.01975621 113.04670226 -236.02208822 106.27546335 -231.12109375 99.81640625 C-229.48200023 97.64000399 -227.90275258 95.45032952 -226.34765625 93.21484375 C-225.89575928 92.56789551 -225.4438623 91.92094727 -224.97827148 91.25439453 C-224.08916043 89.97855305 -223.20441159 88.6996584 -222.32446289 87.41748047 C-221.2654793 85.90923752 -220.13829672 84.44931832 -219 83 C-218.34 83 -217.68 83 -217 83 C-217 82.34 -217 81.68 -217 81 C-216.34 81 -215.68 81 -215 81 C-214.7421875 80.42765625 -214.484375 79.8553125 -214.21875 79.265625 C-212.88634058 76.78871005 -211.34943882 74.8658834 -209.5 72.75 C-208.8915625 72.04359375 -208.283125 71.3371875 -207.65625 70.609375 C-206 69 -206 69 -204 69 C-203.7628125 68.42765625 -203.525625 67.8553125 -203.28125 67.265625 C-201.72406762 64.5120708 -199.87507203 62.83204366 -197.5 60.75 C-196.7059375 60.04359375 -195.911875 59.3371875 -195.09375 58.609375 C-193 57 -193 57 -191 57 C-191 56.34 -191 55.68 -191 55 C-190.34 55 -189.68 55 -189 55 C-189 54.34 -189 53.68 -189 53 C-187.5390625 51.7109375 -187.5390625 51.7109375 -185.625 50.375 C-184.99851562 49.92898437 -184.37203125 49.48296875 -183.7265625 49.0234375 C-182 48 -182 48 -180 48 C-180 47.34 -180 46.68 -180 46 C-178.1015625 44.4921875 -178.1015625 44.4921875 -175.625 42.875 C-174.81289062 42.33617187 -174.00078125 41.79734375 -173.1640625 41.2421875 C-171 40 -171 40 -169 40 C-169 39.34 -169 38.68 -169 38 C-166.09451118 35.95830515 -164.59857954 35 -161 35 C-161 34.34 -161 33.68 -161 33 C-158.42618569 31.59188115 -155.85092678 30.18654181 -153.2734375 28.78515625 C-151.08675258 27.59265624 -148.90444935 26.39208705 -146.7265625 25.18359375 C-140.27293323 21.63486411 -133.90376119 18.54908105 -127 16 C-125.72480205 15.5116118 -124.45010142 15.02192398 -123.17578125 14.53125 C-121.78406938 13.99943646 -120.39214148 13.46818791 -119 12.9375 C-118.35957764 12.69185303 -117.71915527 12.44620605 -117.05932617 12.19311523 C-80.36570956 -1.62198742 -38.79778602 -6.27668935 0 0 Z " fill="#5E3DE2" transform="translate(284,6)"/>
<path d="M0 0 C2.57212984 2.17009946 4.79755926 4.46366154 7 7 C7.845625 7.804375 8.69125 8.60875 9.5625 9.4375 C17.42136374 17.69938239 23.94630139 27.92608159 26.09472656 39.23486328 C26.35264984 40.5761882 26.35264984 40.5761882 26.61578369 41.9446106 C26.80597076 42.96202835 26.80597076 42.96202835 27 44 C20.00804763 44.22875585 13.01706369 44.38603086 6.0222168 44.49438477 C3.64457137 44.53956375 1.26717489 44.60092281 -1.10961914 44.67895508 C-4.53333935 44.78851985 -7.95374914 44.83925005 -11.37890625 44.87890625 C-12.9652462 44.9485836 -12.9652462 44.9485836 -14.58363342 45.01966858 C-21.87238136 45.0246208 -21.87238136 45.0246208 -25.19023132 42.00982666 C-26.94384692 39.74272376 -28.46348395 37.41617545 -30 35 C-39.11741581 27.23492817 -50.92118144 25.40281027 -62.55078125 25.72265625 C-74.87978587 26.71400317 -84.71494733 31.19840792 -93.3125 40.1875 C-103.52808599 52.53831094 -107.18077028 67.23422213 -106 83 C-104.37541055 97.81157227 -99.8903589 110.56740372 -88.59375 120.9453125 C-77.58923921 129.66274123 -63.75735596 132.02238499 -50 131 C-37.70384447 129.42157116 -26.57679904 123.99356615 -18.75 114.25 C-15.25509793 109.07730238 -15.25509793 109.07730238 -11 99 C-29.81 99 -48.62 99 -68 99 C-68 87.78 -68 76.56 -68 65 C-35.66 65 -3.32 65 30 65 C30 117.91917293 30 117.91917293 13 140 C12.29359375 140.94230469 11.5871875 141.88460937 10.859375 142.85546875 C9.93898437 143.91701172 9.93898437 143.91701172 9 145 C8.34 145 7.68 145 7 145 C7 145.66 7 146.32 7 147 C6.34 147 5.68 147 5 147 C5 147.66 5 148.32 5 149 C-17.3258653 167.30921787 -41.49315064 173.67983521 -70 172 C-76.16591345 171.29305802 -82.07602632 169.81815279 -88 168 C-89.03543945 167.68651611 -89.03543945 167.68651611 -90.09179688 167.36669922 C-112.98177104 160.19343267 -130.80985888 144.94384461 -142.2578125 123.9609375 C-147.38061543 114.03760799 -150.15932944 103.9795107 -152 93 C-152.19078125 91.87464844 -152.3815625 90.74929688 -152.578125 89.58984375 C-155.64883 63.46041882 -149.33032046 37.77033206 -133.37109375 16.72265625 C-101.77128524 -22.97966727 -40.77384594 -29.14428022 0 0 Z " fill="#FBFAFD" transform="translate(238,167)"/>
<path d="M0 0 C11.89819449 8.85582788 20.21116381 20.20704283 23 35 C23 37.97 23 40.94 23 44 C7.49 44 -8.02 44 -24 44 C-25.32 41.03 -26.64 38.06 -28 35 C-31.52154659 30.50024602 -35.40903015 28.06691584 -41 27 C-43.70959207 26.79816304 -46.35167195 26.66135151 -49.0625 26.625 C-49.73514893 26.61106201 -50.40779785 26.59712402 -51.10083008 26.58276367 C-57.50916973 26.64309405 -62.02339191 28.28121035 -66.875 32.5 C-70.85128498 37.17798233 -70.35485487 42.14944408 -70 48 C-69.41918824 51.42191312 -69.41918824 51.42191312 -68 54 C-66.1943248 55.05203359 -66.1943248 55.05203359 -64 56 C-62.83404297 56.62455078 -62.83404297 56.62455078 -61.64453125 57.26171875 C-50.3499442 62.94795913 -38.16870001 65.7744112 -26 69 C-6.87485179 74.07967795 11.55195868 81.37676827 22.1953125 98.9765625 C29.13344946 111.87635788 28.23874116 126.5956229 24.25 140.30859375 C18.80407308 156.3910967 6.23426954 166.82604974 -8.5234375 174.2734375 C-19.99904127 179.34405312 -32.58166116 180.50807395 -44.97949219 180.39111328 C-47.00003481 180.37499972 -49.01857874 180.39109508 -51.0390625 180.41015625 C-63.63035194 180.43293841 -75.82769929 178.70455054 -87.3125 173.3125 C-88.06958252 172.96509766 -88.82666504 172.61769531 -89.60668945 172.25976562 C-95.80101829 169.30976884 -101.07036342 165.80663221 -106 161 C-106.96099609 160.07960938 -106.96099609 160.07960938 -107.94140625 159.140625 C-117.74188336 148.89563381 -120.74919723 136.75883052 -122 123 C-106.16 123 -90.32 123 -74 123 C-72.68 126.3 -71.36 129.6 -70 133 C-66.19498417 137.86196468 -60.86954518 141.37778633 -54.69824219 142.37011719 C-52.28661952 142.4991505 -49.91407872 142.49756135 -47.5 142.4375 C-46.69691406 142.44458984 -45.89382813 142.45167969 -45.06640625 142.45898438 C-39.403135 142.39932268 -35.18844374 141.26717253 -30 139 C-29.21109375 138.69578125 -28.4221875 138.3915625 -27.609375 138.078125 C-24.31928223 135.87408227 -23.87103354 131.66456254 -23 128 C-22.20664063 123.14067386 -23.47640619 120.00371823 -26.22924805 116.05981445 C-32.26127292 109.04310497 -41.55484623 106.57888444 -50.1875 104.375 C-51.28739258 104.07996582 -52.38728516 103.78493164 -53.52050781 103.48095703 C-58.17363731 102.23724766 -62.83858447 101.04070915 -67.50390625 99.84375 C-85.22416073 95.26124415 -103.25352456 89.03915251 -113.9375 73.0625 C-118.59043228 64.34549682 -120.73276708 56.18846782 -120.625 46.3125 C-120.61807129 45.27029297 -120.61114258 44.22808594 -120.60400391 43.15429688 C-120.25608333 30.69066707 -116.65803911 19.27817414 -108 10 C-107.2575 9.175 -106.515 8.35 -105.75 7.5 C-77.94069464 -17.78118669 -31.46527916 -21.74341876 0 0 Z " fill="#FBFAFD" transform="translate(396,162)"/>
<path d="M0 0 C0.5534764 2.07553648 1 3.84365964 1 6 C0.34 6 -0.32 6 -1 6 C-1 7.65 -1 9.3 -1 11 C-2.32 11 -3.64 11 -5 11 C-7.13969468 11.79519666 -7.13969468 11.79519666 -7.7109375 13.7421875 C-7.93007813 14.44601563 -8.14921875 15.14984375 -8.375 15.875 C-9.73248978 19.80127812 -9.73248978 19.80127812 -12.1875 21.625 C-13.0846875 22.305625 -13.0846875 22.305625 -14 23 C-14 23.969375 -14 24.93875 -14 25.9375 C-14 29 -14 29 -15.875 31.375 C-18 33 -18 33 -20 33 C-20 33.66 -20 34.32 -20 35 C-21.62626404 36.38232443 -23.2925002 37.71937515 -25 39 C-25.75 37.375 -25.75 37.375 -26 35 C-24.72595087 32.93005577 -23.40984608 30.97519382 -22 29 C-21.54608887 28.35095703 -21.09217773 27.70191406 -20.62451172 27.03320312 C-19.11099103 24.8711749 -17.58781453 22.71622126 -16.0625 20.5625 C-15.55009766 19.83740234 -15.03769531 19.11230469 -14.50976562 18.36523438 C-13.49731098 16.93338937 -12.48255481 15.50316856 -11.46533203 14.07470703 C-10.4901023 12.69391692 -9.52741426 11.30418118 -8.57763672 9.90576172 C-7.43268988 8.23683481 -6.2221549 6.61324446 -5 5 C-4.34 5 -3.68 5 -3 5 C-3 4.34 -3 3.68 -3 3 C-2.34 3 -1.68 3 -1 3 C-0.67 2.01 -0.34 1.02 0 0 Z " fill="#4E42DF" transform="translate(70,84)"/>
<path d="M0 0 C0.33 0 0.66 0 1 0 C1 6.27 1 12.54 1 19 C1.66 19.33 2.32 19.66 3 20 C2.51176758 20.56009766 2.02353516 21.12019531 1.52050781 21.69726562 C-0.24178753 24.36617533 -0.363563 25.68365825 -0.328125 28.84375 C-0.32296875 29.76027344 -0.3178125 30.67679688 -0.3125 31.62109375 C-0.291875 32.57113281 -0.27125 33.52117187 -0.25 34.5 C-0.24484375 35.45003906 -0.2396875 36.40007812 -0.234375 37.37890625 C-0.18854734 41.45183988 -0.02172622 45.05439767 1 49 C1.12836161 50.34349615 1.22105646 51.69079126 1.28125 53.0390625 C1.31863281 53.78414063 1.35601562 54.52921875 1.39453125 55.296875 C1.46519695 56.85675487 1.53550594 58.41665094 1.60546875 59.9765625 C1.71727298 64.12148468 1.71727298 64.12148468 3 68 C3.08308638 69.37548156 3.10736016 70.75485796 3.09765625 72.1328125 C3.09282227 73.34130859 3.09282227 73.34130859 3.08789062 74.57421875 C3.07951172 75.41597656 3.07113281 76.25773437 3.0625 77.125 C3.05798828 77.97449219 3.05347656 78.82398438 3.04882812 79.69921875 C3.03702874 81.79950909 3.01909306 83.8997633 3 86 C-8.09767728 66.03346765 -3.42120247 25.08973607 -1 3 C-0.67 2.01 -0.34 1.02 0 0 Z " fill="#3A2B9B" transform="translate(10,213)"/>
<path d="M0 0 C0.33 0 0.66 0 1 0 C3.42077855 24.1645573 2.73054422 49.14597913 -2 73 C-2.33 73 -2.66 73 -3 73 C-3 67.39 -3 61.78 -3 56 C-2.34 56 -1.68 56 -1 56 C-1.00580078 54.93410645 -1.01160156 53.86821289 -1.01757812 52.77001953 C-1.06060586 41.12985933 -0.83434593 29.50978966 -0.5 17.875 C-0.45159668 16.12630833 -0.40341867 14.37761041 -0.35546875 12.62890625 C-0.23956074 8.41919466 -0.12065874 4.20957799 0 0 Z " fill="#49299F" transform="translate(490,223)"/>
<path d="M0 0 C0.66 0.33 1.32 0.66 2 1 C1.360625 1.226875 0.72125 1.45375 0.0625 1.6875 C-0.618125 2.120625 -1.29875 2.55375 -2 3 C-2.12375 3.804375 -2.2475 4.60875 -2.375 5.4375 C-2.684375 6.7059375 -2.684375 6.7059375 -3 8 C-4.96615661 9.0650015 -6.96726926 10.06833174 -9 11 C-9.33 11.99 -9.66 12.98 -10 14 C-10.66 14 -11.32 14 -12 14 C-11.67 14.99 -11.34 15.98 -11 17 C-11.4375 19.1875 -11.4375 19.1875 -12 21 C-13.093125 21.2475 -14.18625 21.495 -15.3125 21.75 C-19.29214983 23.09903384 -19.66894625 23.82129035 -22 27 C-24.5859375 27.1171875 -24.5859375 27.1171875 -27 27 C-26.07161713 25.68103535 -25.13194268 24.37001311 -24.1875 23.0625 C-23.66542969 22.33160156 -23.14335938 21.60070312 -22.60546875 20.84765625 C-21 19 -21 19 -18 18 C-17.32870775 16.66898951 -16.66287611 15.33522188 -16 14 C-13.90625 11.859375 -13.90625 11.859375 -11.5 9.75 C-10.7059375 9.04359375 -9.911875 8.3371875 -9.09375 7.609375 C-7 6 -7 6 -5 6 C-5 5.34 -5 4.68 -5 4 C-4.34 4 -3.68 4 -3 4 C-3 3.34 -3 2.68 -3 2 C-2.01 1.34 -1.02 0.68 0 0 Z " fill="#4339C3" transform="translate(98,57)"/>
<path d="M0 0 C1.5625 1.25 1.5625 1.25 3 3 C2.6875 5.1875 2.6875 5.1875 2 7 C1.34 7 0.68 7 0 7 C0 6.34 0 5.68 0 5 C-16.83 5 -33.66 5 -51 5 C-50.67 3.68 -50.34 2.36 -50 1 C-50 1.66 -50 2.32 -50 3 C-33.5 3 -17 3 0 3 C0 2.01 0 1.02 0 0 Z " fill="#6B55D1" transform="translate(265,208)"/>
<path d="M0 0 C-0.73581742 1.1549921 -1.48930039 2.29874185 -2.25 3.4375 C-2.66765625 4.07558594 -3.0853125 4.71367187 -3.515625 5.37109375 C-5.28233949 7.30983044 -6.42009615 7.70682911 -9 8 C-9.33 7.67 -9.66 7.34 -10 7 C-15.15982922 8.35784979 -19.13141357 10.84981181 -23.53515625 13.7578125 C-26.26566142 15.13388325 -27.98530099 15.24719457 -31 15 C-27.50372912 10.96088706 -23.42145947 8.84634823 -18.75 6.4375 C-18.02425781 6.05142578 -17.29851562 5.66535156 -16.55078125 5.26757812 C-3.31453479 -1.65726739 -3.31453479 -1.65726739 0 0 Z " fill="#4D41DA" transform="translate(157,24)"/>
<path d="M0 0 C0.33 0 0.66 0 1 0 C1.02526945 6.6752034 1.04283268 13.35039457 1.05493164 20.02563477 C1.05997325 22.29842591 1.06680637 24.5712138 1.07543945 26.84399414 C1.08751261 30.10303551 1.09322987 33.36203417 1.09765625 36.62109375 C1.10281754 37.64400009 1.10797882 38.66690643 1.11329651 39.72080994 C1.11337204 40.66170975 1.11344757 41.60260956 1.11352539 42.57202148 C1.115746 43.40475082 1.11796661 44.23748016 1.12025452 45.09544373 C1 47 1 47 0 48 C0.66 49.32 1.32 50.64 2 52 C0.515 52.495 0.515 52.495 -1 53 C-2.34270821 54.99371825 -3.67653494 56.9934562 -5 59 C-5.66 59 -6.32 59 -7 59 C-6.56661254 57.64451156 -6.12802005 56.29068724 -5.6875 54.9375 C-5.44386719 54.18339844 -5.20023437 53.42929687 -4.94921875 52.65234375 C-4 50 -4 50 -2.47265625 46.96484375 C-0.4922687 42.34894604 -0.52333773 37.87212671 -0.48828125 32.91015625 C-0.47033005 31.96563095 -0.45237885 31.02110565 -0.43388367 30.04795837 C-0.38001844 27.05285 -0.34596142 24.05789881 -0.3125 21.0625 C-0.27930593 19.0227647 -0.24481435 16.98305008 -0.20898438 14.94335938 C-0.12430565 9.96235343 -0.05738128 4.98139217 0 0 Z " fill="#644ACA" transform="translate(268,233)"/>
<path d="M0 0 C0.74507813 0.00451172 1.49015625 0.00902344 2.2578125 0.01367188 C4.0885764 0.02540754 5.91929873 0.0433415 7.75 0.0625 C7.75 0.3925 7.75 0.7225 7.75 1.0625 C1.48 1.3925 -4.79 1.7225 -11.25 2.0625 C-11.58 3.7125 -11.91 5.3625 -12.25 7.0625 C-12.91 7.0625 -13.57 7.0625 -14.25 7.0625 C-14.25 7.7225 -14.25 8.3825 -14.25 9.0625 C-15.9 9.7225 -17.55 10.3825 -19.25 11.0625 C-19.25 16.0125 -19.25 20.9625 -19.25 26.0625 C-22.98349078 21.08451229 -23.07557577 18.08270982 -22.25 12.0625 C-20.467066 6.73384414 -17.13590766 3.70903332 -12.25 1.0625 C-8.19528456 -0.17926933 -4.20211718 -0.04825753 0 0 Z " fill="#6B50D3" transform="translate(347.25,187.9375)"/>
<path d="M0 0 C0.66 0 1.32 0 2 0 C2.125 5.75 2.125 5.75 1 8 C0.113125 7.95875 -0.77375 7.9175 -1.6875 7.875 C-5.01865447 8.00070394 -7.08430932 8.41719649 -10 10 C-10.33 10.99 -10.66 11.98 -11 13 C-11.99 12.67 -12.98 12.34 -14 12 C-14 12.66 -14 13.32 -14 14 C-14.99 14 -15.98 14 -17 14 C-17.66 15.32 -18.32 16.64 -19 18 C-20.32 17.67 -21.64 17.34 -23 17 C-21.68 16.34 -20.36 15.68 -19 15 C-19 14.34 -19 13.68 -19 13 C-17.1015625 11.4921875 -17.1015625 11.4921875 -14.625 9.875 C-13.81289062 9.33617187 -13.00078125 8.79734375 -12.1640625 8.2421875 C-10 7 -10 7 -8 7 C-8 6.34 -8 5.68 -8 5 C-5.09451118 2.95830515 -3.59857954 2 0 2 C0 1.34 0 0.68 0 0 Z " fill="#372F9E" transform="translate(123,39)"/>
<path d="M0 0 C1.125 3.75 1.125 3.75 0 6 C-0.66 6 -1.32 6 -2 6 C-2.12375 7.258125 -2.2475 8.51625 -2.375 9.8125 C-2.69868059 13.10325263 -3.06604999 14.09907498 -5 17 C-5.34153937 18.66500443 -5.67449498 20.33178677 -6 22 C-7.0625 24.3125 -7.0625 24.3125 -8 26 C-8.66 26 -9.32 26 -10 26 C-10.33 27.65 -10.66 29.3 -11 31 C-11.66 31 -12.32 31 -13 31 C-6.8125 6.8125 -6.8125 6.8125 0 0 Z " fill="#362D9F" transform="translate(36,134)"/>
<path d="M0 0 C0.81597656 -0.01224609 1.63195312 -0.02449219 2.47265625 -0.03710938 C3.65794922 -0.04000977 3.65794922 -0.04000977 4.8671875 -0.04296875 C5.5876123 -0.04707764 6.30803711 -0.05118652 7.05029297 -0.05541992 C9.42938021 0.22313878 11.05521855 1.01097118 13.125 2.1875 C11.34222656 2.24357422 11.34222656 2.24357422 9.5234375 2.30078125 C-3.41676862 2.78742373 -16.07793144 4.23636921 -28.875 6.1875 C-28.215 5.1975 -27.555 4.2075 -26.875 3.1875 C-24.16121123 2.66696724 -21.61355017 2.30667143 -18.875 2.0625 C-12.37330244 1.41460357 -6.57046818 0.00514121 0 0 Z " fill="#5741CE" transform="translate(178.875,146.8125)"/>
<path d="M0 0 C-4.75890529 2.37945265 -7.54838765 3.10095578 -13 3 C-13 3.66 -13 4.32 -13 5 C-14.11375 5.12375 -15.2275 5.2475 -16.375 5.375 C-20.03103677 5.6465813 -20.03103677 5.6465813 -22 8 C-26.16937798 8.23600253 -29.94392005 7.98329211 -34 7 C-31.32367363 5.21578242 -30.05176232 4.622858 -27.05078125 3.96484375 C-26.28443359 3.79533203 -25.51808594 3.62582031 -24.72851562 3.45117188 C-23.53258789 3.1969043 -23.53258789 3.1969043 -22.3125 2.9375 C-21.53455078 2.76412109 -20.75660156 2.59074219 -19.95507812 2.41210938 C-13.36073115 0.97664269 -6.77799663 -0.21181239 0 0 Z " fill="#3B2FA1" transform="translate(221,6)"/>
<path d="M0 0 C0 0.99 0 1.98 0 3 C7.26 3.33 14.52 3.66 22 4 C22.33 3.34 22.66 2.68 23 2 C23.66 2.33 24.32 2.66 25 3 C25 2.34 25 1.68 25 1 C26.65 0.67 28.3 0.34 30 0 C26.49276918 4.0468048 23.2009022 5.72337 17.81347656 6.18896484 C15.35154474 6.26826794 12.90053783 6.27285882 10.4375 6.25 C9.60025391 6.25773437 8.76300781 6.26546875 7.90039062 6.2734375 C3.4911976 6.25947331 0.00842548 6.06569166 -4 4 C-4 3.01 -4 2.02 -4 1 C-2 0 -2 0 0 0 Z " fill="#704CD5" transform="translate(338,299)"/>
<path d="M0 0 C-2.82877554 1.55536531 -5.26268863 2.36829407 -8.44921875 2.8515625 C-9.72249023 3.04492188 -9.72249023 3.04492188 -11.02148438 3.2421875 C-12.34116211 3.43167969 -12.34116211 3.43167969 -13.6875 3.625 C-14.54794922 3.7590625 -15.40839844 3.893125 -16.29492188 4.03125 C-31.27034037 6.24314301 -31.27034037 6.24314301 -37 3 C-30.11794289 1.48269607 -23.69632249 0.8601096 -16.65234375 0.99609375 C-11.05456506 1.0043379 -5.66111999 -0.09760552 0 0 Z " fill="#4C27A2" transform="translate(299,487)"/>
<path d="M0 0 C0.66 0.99 1.32 1.98 2 3 C1.67 3.99 1.34 4.98 1 6 C1.99 6.99 2.98 7.98 4 9 C3.01 9.33 2.02 9.66 1 10 C0.30062468 11.31647119 -0.36729133 12.65022151 -1 14 C-1.99 14.495 -1.99 14.495 -3 15 C-3.433125 16.423125 -3.433125 16.423125 -3.875 17.875 C-5.08637544 21.23993178 -5.99906682 22.19944009 -9 24 C-9.66 23.34 -10.32 22.68 -11 22 C-10.2575 21.21625 -9.515 20.4325 -8.75 19.625 C-4.10823386 14.0759198 -2.1482371 6.80275083 0 0 Z " fill="#6E47DB" transform="translate(421,296)"/>
<path d="M0 0 C-0.66386719 0.25394531 -1.32773438 0.50789062 -2.01171875 0.76953125 C-7.47415515 2.85432138 -7.47415515 2.85432138 -12.5625 5.6875 C-15.64366293 7.34658773 -18.31843891 7.53330436 -21.7734375 7.81640625 C-24.54724913 8.04512405 -27.26198535 8.50856147 -30 9 C-26.31086266 5.7316396 -22.14697047 4.43317186 -17.5625 2.875 C-16.81162109 2.61074219 -16.06074219 2.34648437 -15.28710938 2.07421875 C-4.74092416 -1.58030805 -4.74092416 -1.58030805 0 0 Z " fill="#302889" transform="translate(187,14)"/>
<path d="M0 0 C3.63 0 7.26 0 11 0 C9.56134011 2.87731978 7.50689217 3.50628229 4.6875 5 C3.23923828 5.7734375 3.23923828 5.7734375 1.76171875 6.5625 C0.85035156 7.036875 -0.06101562 7.51125 -1 8 C-1.71542969 8.391875 -2.43085938 8.78375 -3.16796875 9.1875 C-5 10 -5 10 -8 10 C-8 9.34 -8 8.68 -8 8 C-7.01 8 -6.02 8 -5 8 C-5 7.01 -5 6.02 -5 5 C-3.625 3.3125 -3.625 3.3125 -2 2 C-1.34 2 -0.68 2 0 2 C0 1.34 0 0.68 0 0 Z " fill="#5D30C7" transform="translate(361,459)"/>
<path d="M0 0 C0.33 0 0.66 0 1 0 C1.01981934 0.58378418 1.03963867 1.16756836 1.06005859 1.76904297 C1.15662861 4.47140268 1.26575973 7.17312394 1.375 9.875 C1.4059375 10.7928125 1.436875 11.710625 1.46875 12.65625 C1.70318261 18.20448837 2.34116997 23.43189964 3.57226562 28.84960938 C4.1174598 31.59051705 4.1465533 34.21548723 4 37 C1.74776372 33.62164558 1.09667439 30.59856912 0.375 26.6875 C0.24383789 25.98270508 0.11267578 25.27791016 -0.02246094 24.55175781 C-1.39330473 16.60086383 -2.3555158 7.8263912 0 0 Z " fill="#7E6CD7" transform="translate(132,232)"/>
<path d="M0 0 C0.33 0 0.66 0 1 0 C1 2.97 1 5.94 1 9 C1.66 9.33 2.32 9.66 3 10 C2.51789062 10.65226563 2.03578125 11.30453125 1.5390625 11.9765625 C-3.21128979 18.48836196 -3.21128979 18.48836196 -6 26 C-7.13261915 22.60214256 -6.8537462 21.75407024 -5.8203125 18.4375 C-5.55089844 17.55835938 -5.28148438 16.67921875 -5.00390625 15.7734375 C-4.71386719 14.85820312 -4.42382812 13.94296875 -4.125 13 C-3.84269531 12.08476562 -3.56039063 11.16953125 -3.26953125 10.2265625 C-2.21136523 6.8063292 -1.13216677 3.3965003 0 0 Z " fill="#4438BE" transform="translate(22,165)"/>
<path d="M0 0 C0.5534764 2.07553648 1 3.84365964 1 6 C0.34 6 -0.32 6 -1 6 C-1 7.65 -1 9.3 -1 11 C-2.32 11 -3.64 11 -5 11 C-7.1564434 11.81035868 -7.1564434 11.81035868 -7.8125 13.875 C-9.35835192 16.64126132 -11.23845328 17.54655436 -14 19 C-12.45463516 15.69291925 -10.57205999 12.75273101 -8.5 9.75 C-7.8915625 8.85796875 -7.283125 7.9659375 -6.65625 7.046875 C-6.1096875 6.37140625 -5.563125 5.6959375 -5 5 C-4.34 5 -3.68 5 -3 5 C-3 4.34 -3 3.68 -3 3 C-2.34 3 -1.68 3 -1 3 C-0.67 2.01 -0.34 1.02 0 0 Z " fill="#3F36B7" transform="translate(70,84)"/>
<path d="M0 0 C0.33 1.65 0.66 3.3 1 5 C0.21625 4.938125 -0.5675 4.87625 -1.375 4.8125 C-2.674375 4.9053125 -2.674375 4.9053125 -4 5 C-4.99 6.485 -4.99 6.485 -6 8 C-6.99 7.67 -7.98 7.34 -9 7 C-10.1875 4.4375 -10.1875 4.4375 -11 2 C-7.36576791 -0.32590854 -4.22911669 -0.16265833 0 0 Z " fill="#6E37E3" transform="translate(332,472)"/>
<path d="M0 0 C-0.226875 0.763125 -0.45375 1.52625 -0.6875 2.3125 C-0.790625 3.199375 -0.89375 4.08625 -1 5 C0.33378575 6.8354799 0.33378575 6.8354799 2 8 C1.67 8.99 1.34 9.98 1 11 C1.66 11 2.32 11 3 11 C3 11.99 3 12.98 3 14 C3.66 14 4.32 14 5 14 C5 15.98 5 17.96 5 20 C1.83923862 18.41961931 0.92943899 15.24828204 -0.5625 12.1875 C-0.87896484 11.55779297 -1.19542969 10.92808594 -1.52148438 10.27929688 C-3.02533008 7.23648381 -4.38363123 4.35203292 -5 1 C-2 0 -2 0 0 0 Z " fill="#3A2997" transform="translate(36,352)"/>
<path d="M0 0 C2.46465042 2.46465042 2.50774017 3.79580043 3.0703125 7.19921875 C3.33134766 8.76639648 3.33134766 8.76639648 3.59765625 10.36523438 C3.77167969 11.46158203 3.94570313 12.55792969 4.125 13.6875 C4.30675781 14.76451172 4.48851562 15.84152344 4.67578125 16.95117188 C5.55870458 22.36488596 6.23542493 27.51459911 6 33 C2.85069269 29.58123324 2.57111415 26.9475563 2.375 22.375 C2.30960948 18.02830814 2.30960948 18.02830814 1 14 C0.76970044 11.62876754 0.58880058 9.25258057 0.4375 6.875 C0.35371094 5.59367188 0.26992188 4.31234375 0.18359375 2.9921875 C0.12300781 2.00476563 0.06242187 1.01734375 0 0 Z " fill="#462B9D" transform="translate(484,190)"/>
<path d="M0 0 C2 3 2 3 2 6 C-14.5 6 -31 6 -48 6 C-48 5.67 -48 5.34 -48 5 C-32.49 4.67 -16.98 4.34 -1 4 C-0.67 2.68 -0.34 1.36 0 0 Z " fill="#F3E9FE" transform="translate(263,205)"/>
<path d="M0 0 C1.01126953 0.41378906 1.01126953 0.41378906 2.04296875 0.8359375 C5.4415473 2.17381915 8.87071093 3.40268239 12.3125 4.625 C12.95767578 4.85445313 13.60285156 5.08390625 14.26757812 5.3203125 C15.84474179 5.8810818 17.42232784 6.44066291 19 7 C19 7.33 19 7.66 19 8 C13.06 8 7.12 8 1 8 C1.33 6.68 1.66 5.36 2 4 C1.14209817 1.78228936 1.14209817 1.78228936 0 0 Z " fill="#674CD7" transform="translate(129,326)"/>
<path d="M0 0 C1.16917969 0.34933594 2.33835937 0.69867188 3.54296875 1.05859375 C5.09111138 1.5183452 6.63929039 1.97797417 8.1875 2.4375 C8.95642578 2.66759766 9.72535156 2.89769531 10.51757812 3.13476562 C14.32525141 4.26235986 18.08151762 5.3168177 22 6 C22 6.33 22 6.66 22 7 C21.10796875 6.98839844 20.2159375 6.97679687 19.296875 6.96484375 C18.12640625 6.95582031 16.9559375 6.94679688 15.75 6.9375 C14.58984375 6.92589844 13.4296875 6.91429687 12.234375 6.90234375 C9.59022872 6.98217908 7.50173909 7.21356222 5 8 C4.67 6.35 4.34 4.7 4 3 C2.68 2.67 1.36 2.34 0 2 C0 1.34 0 0.68 0 0 Z " fill="#6747D4" transform="translate(311,256)"/>
<path d="M0 0 C0.33 0.99 0.66 1.98 1 3 C0.30132812 3.19335938 -0.39734375 3.38671875 -1.1171875 3.5859375 C-2.02726562 3.84632813 -2.93734375 4.10671875 -3.875 4.375 C-4.77992188 4.63023437 -5.68484375 4.88546875 -6.6171875 5.1484375 C-9.14569726 5.8604315 -9.14569726 5.8604315 -11 8 C-14.2578125 8.1953125 -14.2578125 8.1953125 -18.125 8.125 C-20.04699219 8.09792969 -20.04699219 8.09792969 -22.0078125 8.0703125 C-23.48894531 8.03550781 -23.48894531 8.03550781 -25 8 C-25 7.67 -25 7.34 -25 7 C-24.03320312 6.82984375 -23.06640625 6.6596875 -22.0703125 6.484375 C-14.32261336 5.06238572 -7.19489846 3.33504705 0 0 Z " fill="#7552D4" transform="translate(390,334)"/>
<path d="M0 0 C0.33 0.99 0.66 1.98 1 3 C-0.14453125 4.75390625 -0.14453125 4.75390625 -1.8125 6.5625 C-2.35519531 7.16191406 -2.89789063 7.76132812 -3.45703125 8.37890625 C-6.35344645 11.42197539 -7.82468608 12.34073991 -12 13 C-12.33 13.99 -12.66 14.98 -13 16 C-13.99 16.33 -14.98 16.66 -16 17 C-16.33 16.01 -16.66 15.02 -17 14 C-15.78763672 13.23816406 -15.78763672 13.23816406 -14.55078125 12.4609375 C-8.84457985 8.78529028 -3.91447068 5.59210098 0 0 Z " fill="#7450D6" transform="translate(409,319)"/>
<path d="M0 0 C3.375 -0.125 3.375 -0.125 7 0 C7.66 0.66 8.32 1.32 9 2 C10.41866575 2.53234805 11.86014218 3.00545406 13.3125 3.4375 C16.88017056 4.56534424 19.88043211 5.88674433 23 8 C21 9 21 9 18.84521484 8.37915039 C17.97590332 8.03875732 17.1065918 7.69836426 16.2109375 7.34765625 C15.26992187 6.98349609 14.32890625 6.61933594 13.359375 6.24414062 C11.88210937 5.65922852 11.88210937 5.65922852 10.375 5.0625 C9.38242188 4.67642578 8.38984375 4.29035156 7.3671875 3.89257812 C4.90870583 2.93518863 2.45323318 1.97074241 0 1 C0 0.67 0 0.34 0 0 Z " fill="#4C2FA3" transform="translate(153,472)"/>
<path d="M0 0 C1.52966968 2.86238617 2.55790408 5.62917381 3.4375 8.75 C4.75052554 13.26520006 6.29601941 17.61833563 8 22 C6.35 22.33 4.7 22.66 3 23 C3.33 20.36 3.66 17.72 4 15 C3.34 15 2.68 15 2 15 C-0.10428384 9.87080814 -0.21755666 5.4389165 0 0 Z " fill="#6955D6" transform="translate(87,266)"/>
<path d="M0 0 C0.66 0.33 1.32 0.66 2 1 C1.360625 1.103125 0.72125 1.20625 0.0625 1.3125 C-0.618125 1.539375 -1.29875 1.76625 -2 2 C-2.33 2.99 -2.66 3.98 -3 5 C-5.109375 6.60546875 -5.109375 6.60546875 -7.75 8.1875 C-8.61109375 8.71730469 -9.4721875 9.24710938 -10.359375 9.79296875 C-13.16534872 11.075581 -14.95563839 11.24639617 -18 11 C-14.79027302 7.36284706 -11.17820589 5.28586741 -6.875 3.1875 C-5.92560547 2.70120117 -5.92560547 2.70120117 -4.95703125 2.20507812 C-3.3367588 1.40182204 -1.67045409 0.69288259 0 0 Z " fill="#3C33A3" transform="translate(144,28)"/>
<path d="M0 0 C0.66 0 1.32 0 2 0 C2 0.66 2 1.32 2 2 C2.66 2 3.32 2 4 2 C4 1.34 4 0.68 4 0 C4.99 0.33 5.98 0.66 7 1 C6.01 2.485 6.01 2.485 5 4 C5.32196657 6.51133923 5.92939503 8.77534783 6.6875 11.1875 C6.790625 11.785625 6.89375 12.38375 7 13 C6.34 13.66 5.68 14.32 5 15 C4.15733289 13.25447527 3.32619962 11.5033792 2.5 9.75 C2.0359375 8.77546875 1.571875 7.8009375 1.09375 6.796875 C0 4 0 4 0 0 Z " fill="#4733B9" transform="translate(24,336)"/>
<path d="M0 0 C0.33 0 0.66 0 1 0 C1 6.27 1 12.54 1 19 C1.66 19.33 2.32 19.66 3 20 C1.68 21.32 0.36 22.64 -1 24 C-1.02901394 20.5625177 -1.04680335 17.12506688 -1.0625 13.6875 C-1.07087891 12.71103516 -1.07925781 11.73457031 -1.08789062 10.72851562 C-1.09111328 9.79072266 -1.09433594 8.85292969 -1.09765625 7.88671875 C-1.10551147 6.59060669 -1.10551147 6.59060669 -1.11352539 5.26831055 C-1 3 -1 3 0 0 Z " fill="#4133AB" transform="translate(10,213)"/>
<path d="M0 0 C1.42201843 4.26605529 -0.29566916 7.28245509 -1.8125 11.3125 C-2.36105935 12.80845363 -2.90924326 14.30454499 -3.45703125 15.80078125 C-3.72080566 16.51314941 -3.98458008 17.22551758 -4.25634766 17.95947266 C-5.22654939 20.62163486 -6.12204615 23.30618064 -7 26 C-7.33 26 -7.66 26 -8 26 C-8 23.69 -8 21.38 -8 19 C-7.34 19 -6.68 19 -6 19 C-6 17.35 -6 15.7 -6 14 C-5.34 14 -4.68 14 -4 14 C-4.061875 12.39125 -4.061875 12.39125 -4.125 10.75 C-3.96269394 5.88081817 -2.64692077 3.97038115 0 0 Z " fill="#462697" transform="translate(481,318)"/>
<path d="M0 0 C0.33 0.66 0.66 1.32 1 2 C2.65 2 4.3 2 6 2 C2.99422513 4.00384991 0.15022736 5.26119742 -3.1875 6.625 C-4.27417969 7.07101563 -5.36085937 7.51703125 -6.48046875 7.9765625 C-7.72763672 8.48316406 -7.72763672 8.48316406 -9 9 C-8.625 7.0625 -8.625 7.0625 -8 5 C-7.34 4.67 -6.68 4.34 -6 4 C-5.34 3.01 -4.68 2.02 -4 1 C-1.875 0.3125 -1.875 0.3125 0 0 Z " fill="#5E49DC" transform="translate(139,153)"/>
<path d="M0 0 C2.97345372 1.15569783 5.9012616 2.38867013 8.8125 3.69140625 C9.49570312 3.99626953 10.17890625 4.30113281 10.8828125 4.61523438 C12.2957308 5.247398 13.70719357 5.88282476 15.1171875 6.52148438 C18.7316678 8.12754119 22.04888507 9.43665744 26 10 C26 10.33 26 10.66 26 11 C20.84121398 11.54303011 17.24196821 10.07465673 12.609375 8.07421875 C9.37926793 6.7444591 6.08672204 5.8069978 2.71484375 4.90625 C1 4 1 4 0.25390625 1.90625 C0.17011719 1.2771875 0.08632813 0.648125 0 0 Z " fill="#6F50D1" transform="translate(297,329)"/>
<path d="M0 0 C1.8871875 0.0309375 1.8871875 0.0309375 3.8125 0.0625 C0.70829356 2.13197096 -2.2193675 3.38696144 -5.6875 4.75 C-6.8321875 5.20761719 -7.976875 5.66523438 -9.15625 6.13671875 C-12.1875 7.0625 -12.1875 7.0625 -15.1875 6.0625 C-14.5275 5.0725 -13.8675 4.0825 -13.1875 3.0625 C-11.5375 3.3925 -9.8875 3.7225 -8.1875 4.0625 C-7.8575 3.0725 -7.5275 2.0825 -7.1875 1.0625 C-4.43671116 0.14557039 -2.82801087 -0.04636083 0 0 Z " fill="#552CAE" transform="translate(341.1875,472.9375)"/>
<path d="M0 0 C8.25 1.32 16.5 2.64 25 4 C25 4.33 25 4.66 25 5 C22.22882696 4.85919445 19.45817359 4.71256882 16.6875 4.5625 C15.50897461 4.50352539 15.50897461 4.50352539 14.30664062 4.44335938 C13.54931641 4.40146484 12.79199219 4.35957031 12.01171875 4.31640625 C11.31522217 4.27974854 10.61872559 4.24309082 9.90112305 4.20532227 C8 4 8 4 5 3 C5 3.66 5 4.32 5 5 C3.0625 4.1875 3.0625 4.1875 1 3 C0.67 2.01 0.34 1.02 0 0 Z M0 5 C3 6 3 6 3 6 Z " fill="#6541D7" transform="translate(313,338)"/>
<path d="M0 0 C3 3 3 3 3.25 6.75 C3.09548529 10.54965729 2.76145363 14.26887721 2 18 C1.34 18.33 0.68 18.66 0 19 C0 12.73 0 6.46 0 0 Z " fill="#523FD6" transform="translate(9,238)"/>
<path d="M0 0 C0.66 0 1.32 0 2 0 C1.20363476 5.18056545 0.09064396 10.26530907 -1.0625 15.375 C-1.24876953 16.20644531 -1.43503906 17.03789062 -1.62695312 17.89453125 C-2.08318198 19.93001382 -2.54139025 21.96505255 -3 24 C-3.33 24 -3.66 24 -4 24 C-4 20.04 -4 16.08 -4 12 C-3.34 12 -2.68 12 -2 12 C-2.061875 10.700625 -2.061875 10.700625 -2.125 9.375 C-1.99542279 5.87641532 -1.23980344 3.25448403 0 0 Z " fill="#6653D3" transform="translate(89,208)"/>
<path d="M0 0 C0.33 0 0.66 0 1 0 C1.02685938 2.14576637 1.04633088 4.29162645 1.0625 6.4375 C1.07410156 7.63246094 1.08570313 8.82742187 1.09765625 10.05859375 C1 13 1 13 0 14 C-0.23075082 15.34747084 -0.41153063 16.70377565 -0.5625 18.0625 C-0.706875 19.361875 -0.85125 20.66125 -1 22 C-3 20 -3 20 -3.3125 17.1875 C-3.17577205 11.34548759 -1.42332316 5.63398749 0 0 Z " fill="#3C33A7" transform="translate(14,192)"/>
<path d="M0 0 C0.97533063 2.63339271 1.019574 3.92348347 0.3125 6.6875 C-1 9 -1 9 -3.125 9.8125 C-3.74375 9.874375 -4.3625 9.93625 -5 10 C-5.33 11.98 -5.66 13.96 -6 16 C-6.66 14.68 -7.32 13.36 -8 12 C-7.05208333 10.578125 -6.10416667 9.15625 -5.15625 7.734375 C-4.7746875 7.16203125 -4.393125 6.5896875 -4 6 C-2 3 -2 3 0 0 Z " fill="#39319F" transform="translate(52,107)"/>
<path d="M0 0 C1.32 1.65 2.64 3.3 4 5 C2.9169419 7.1661162 1.70541306 8.29458694 0 10 C-0.515625 10.721875 -1.03125 11.44375 -1.5625 12.1875 C-2.2740625 13.0846875 -2.2740625 13.0846875 -3 14 C-3.66 14 -4.32 14 -5 14 C-3.45730076 9.27934033 -1.92205381 4.58335908 0 0 Z " fill="#6C4FD8" transform="translate(266,278)"/>
<path d="M0 0 C0.66 0.33 1.32 0.66 2 1 C1.67 1.99 1.34 2.98 1 4 C3.64 4.33 6.28 4.66 9 5 C9 7.31 9 9.62 9 12 C4.81576108 8.49102731 0.80411834 4.91939465 -3 1 C-2.01 0.67 -1.02 0.34 0 0 Z " fill="#6949D8" transform="translate(398,160)"/>
<path d="M0 0 C1.45947705 0.06006078 2.91779272 0.1488689 4.375 0.25 C5.59316406 0.31960938 5.59316406 0.31960938 6.8359375 0.390625 C9 1 9 1 10.2890625 2.859375 C11 5 11 5 11 8 C6.99698968 6.23867546 3.3971023 3.73867517 0 1 C0 0.67 0 0.34 0 0 Z " fill="#5033C0" transform="translate(101,441)"/>
<path d="M0 0 C9.70835475 -0.49644996 18.56403855 0.98827218 28 3 C24.74794841 3.96328543 21.76114248 4.16468233 18.375 4.1875 C16.93253906 4.20876953 16.93253906 4.20876953 15.4609375 4.23046875 C13 4 13 4 11 2 C8.33757179 1.53709779 8.33757179 1.53709779 5.375 1.375 C3.87066406 1.26285156 3.87066406 1.26285156 2.3359375 1.1484375 C1.56507813 1.09945313 0.79421875 1.05046875 0 1 C0 0.67 0 0.34 0 0 Z " fill="#312487" transform="translate(267,5)"/>
<path d="M0 0 C1 3 1 3 -0.25 6.125 C-2 9 -2 9 -5 10 C-5.474375 10.825 -5.94875 11.65 -6.4375 12.5 C-8 15 -8 15 -10.1875 15.8125 C-10.785625 15.874375 -11.38375 15.93625 -12 16 C-12 15.34 -12 14.68 -12 14 C-11.34 14 -10.68 14 -10 14 C-10 13.34 -10 12.68 -10 12 C-8.33333333 10.33333333 -6.66666667 8.66666667 -5 7 C-3.24735796 4.71682848 -1.62972315 2.37473944 0 0 Z " fill="#6D52D3" transform="translate(255,300)"/>
<path d="M0 0 C0.99 0.66 1.98 1.32 3 2 C-9.75489396 9.42618271 -9.75489396 9.42618271 -17 9 C-16.34 8.67 -15.68 8.34 -15 8 C-15 7.34 -15 6.68 -15 6 C-13.7625 5.855625 -12.525 5.71125 -11.25 5.5625 C-8.43495501 5.21311498 -5.7298503 4.79620634 -3 4 C-3 3.34 -3 2.68 -3 2 C-2.01 1.34 -1.02 0.68 0 0 Z " fill="#674DD0" transform="translate(207,289)"/>
<path d="M0 0 C0.33 0 0.66 0 1 0 C0.88581333 2.58422459 0.75907638 5.16679513 0.625 7.75 C0.5940625 8.47960937 0.563125 9.20921875 0.53125 9.9609375 C0.31050269 14.00797144 -0.14920997 16.29841994 -2 20 C-2 14.39 -2 8.78 -2 3 C-1.34 3 -0.68 3 0 3 C0 2.01 0 1.02 0 0 Z " fill="#502BA9" transform="translate(489,276)"/>
<path d="M0 0 C2.55260028 3.31757512 4.87469946 6.76184181 7.1875 10.25 C7.90292969 11.32765625 8.61835937 12.4053125 9.35546875 13.515625 C9.89816406 14.33546875 10.44085938 15.1553125 11 16 C10.01 16 9.02 16 8 16 C7.67 15.34 7.34 14.68 7 14 C4.97536745 13.34786708 4.97536745 13.34786708 3 13 C3 11.35 3 9.7 3 8 C2.34 7.67 1.68 7.34 1 7 C0.59270772 4.67843403 0.25561323 2.3431213 0 0 Z " fill="#6853D4" transform="translate(95,289)"/>
<path d="M0 0 C0.66 0.33 1.32 0.66 2 1 C2.33333333 2.33333333 2.66666667 3.66666667 3 5 C3.66 5.33 4.32 5.66 5 6 C5.72693904 7.97888961 6.39816251 9.97954558 7 12 C3.55571735 10.55218207 1.63869038 8.72305391 -0.75 5.875 C-1.36359375 5.15054687 -1.9771875 4.42609375 -2.609375 3.6796875 C-3.06828125 3.12539063 -3.5271875 2.57109375 -4 2 C-3.34 1.67 -2.68 1.34 -2 1 C-1.34 1.33 -0.68 1.66 0 2 C0 1.34 0 0.68 0 0 Z " fill="#382693" transform="translate(69,406)"/>
<path d="M0 0 C1.1875 1.6875 1.1875 1.6875 2 4 C0.75 6.75 0.75 6.75 -1 9 C-1.66 9 -2.32 9 -3 9 C-3.33 10.65 -3.66 12.3 -4 14 C-4.66 14 -5.32 14 -6 14 C-2.97297297 2.97297297 -2.97297297 2.97297297 0 0 Z " fill="#4338BB" transform="translate(29,151)"/>
<path d="M0 0 C5.06562383 -0.25328119 9.15758367 0.66416101 14 2 C14 2.66 14 3.32 14 4 C14.99 4 15.98 4 17 4 C17 4.66 17 5.32 17 6 C8.585 4.02 8.585 4.02 0 2 C0 1.34 0 0.68 0 0 Z " fill="#775DD5" transform="translate(366,149)"/>
<path d="M0 0 C0.66 0.33 1.32 0.66 2 1 C1.360625 1.226875 0.72125 1.45375 0.0625 1.6875 C-0.618125 2.120625 -1.29875 2.55375 -2 3 C-2.1546875 4.175625 -2.1546875 4.175625 -2.3125 5.375 C-3.13282194 8.5071383 -3.74283701 8.77816268 -6.4375 10.375 C-7.613125 10.91125 -8.78875 11.4475 -10 12 C-10.66 11.67 -11.32 11.34 -12 11 C-10.37660195 9.29115995 -8.70680947 7.62553283 -7 6 C-6.34 6 -5.68 6 -5 6 C-5 5.34 -5 4.68 -5 4 C-4.34 4 -3.68 4 -3 4 C-3 3.34 -3 2.68 -3 2 C-2.01 1.34 -1.02 0.68 0 0 Z " fill="#332B97" transform="translate(98,57)"/>
<path d="M0 0 C0.99 0 1.98 0 3 0 C4.70084819 5.32932432 5.52013969 10.43109483 6 16 C3.63224279 13.63224279 3.00103504 11.70288662 1.875 8.5625 C1.52179687 7.59441406 1.16859375 6.62632812 0.8046875 5.62890625 C0 3 0 3 0 0 Z " fill="#3B2B99" transform="translate(18,320)"/>
<path d="M0 0 C2.01473912 2.23859903 2.96851602 3.45371047 3.14453125 6.5078125 C3.03496094 7.37148438 2.92539062 8.23515625 2.8125 9.125 C2.71582031 9.99382812 2.61914062 10.86265625 2.51953125 11.7578125 C2 14 2 14 0 16 C-0.19573608 14.56359829 -0.38127816 13.12580496 -0.5625 11.6875 C-0.66691406 10.88699219 -0.77132813 10.08648437 -0.87890625 9.26171875 C-1 7 -1 7 0 4 C0 2.68 0 1.36 0 0 Z " fill="#7453D4" transform="translate(371,280)"/>
<path d="M0 0 C-1.40929697 3.47132095 -2.90605083 4.88093274 -6.125 6.75 C-6.84945312 7.17796875 -7.57390625 7.6059375 -8.3203125 8.046875 C-8.87460938 8.36140625 -9.42890625 8.6759375 -10 9 C-10 8.01 -10 7.02 -10 6 C-9.34 6 -8.68 6 -8 6 C-8 4.35 -8 2.7 -8 1 C-5.23735711 0.40267181 -2.83967231 0 0 0 Z " fill="#614EDA" transform="translate(129,161)"/>
<path d="M0 0 C1.86785156 0.01353516 1.86785156 0.01353516 3.7734375 0.02734375 C5.18496094 0.04474609 5.18496094 0.04474609 6.625 0.0625 C6.625 0.3925 6.625 0.7225 6.625 1.0625 C-0.635 2.0525 -7.895 3.0425 -15.375 4.0625 C-13.375 1.0625 -13.375 1.0625 -10.7109375 0.37890625 C-7.1171054 0.03803927 -3.60958548 -0.03405269 0 0 Z " fill="#6754D1" transform="translate(165.375,148.9375)"/>
<path d="M0 0 C0.66 0 1.32 0 2 0 C2.125 5.75 2.125 5.75 1 8 C-1.31 8 -3.62 8 -6 8 C-6 7.34 -6 6.68 -6 6 C-5.34 6 -4.68 6 -4 6 C-3.67 4.68 -3.34 3.36 -3 2 C-2.01 2 -1.02 2 0 2 C0 1.34 0 0.68 0 0 Z " fill="#4439C1" transform="translate(123,39)"/>
<path d="M0 0 C3.03901272 2.56528426 4.24652224 5.42319941 5.75 9.0625 C6.19859375 10.12597656 6.6471875 11.18945312 7.109375 12.28515625 C8 15 8 15 7 17 C4.53686261 15.17251097 3.16571382 13.77023784 2.51171875 10.73046875 C2.27481707 8.48520654 2.09638651 6.25544422 2 4 C1.34 4 0.68 4 0 4 C0 2.68 0 1.36 0 0 Z " fill="#452D98" transform="translate(464,136)"/>
<path d="M0 0 C-3.8877754 2.88447852 -7.09298409 3.43289084 -11.7734375 3.81640625 C-14.54724913 4.04512405 -17.26198535 4.50856147 -20 5 C-17.02944957 2.47744441 -14.76831199 1.51057967 -10.9375 0.875 C-1.98113208 -0.66037736 -1.98113208 -0.66037736 0 0 Z " fill="#4135B7" transform="translate(177,18)"/>
<path d="M0 0 C-1.0007622 2.55570992 -1.68423699 3.79700949 -4.0234375 5.30078125 C-4.79945313 5.63464844 -5.57546875 5.96851563 -6.375 6.3125 C-7.14585937 6.65925781 -7.91671875 7.00601562 -8.7109375 7.36328125 C-11.2520823 8.07011845 -12.54499381 7.86878073 -15 7 C-12.87767021 5.82823482 -10.75242209 4.66245215 -8.625 3.5 C-7.72007812 2.99919922 -7.72007812 2.99919922 -6.796875 2.48828125 C-2.2265625 0 -2.2265625 0 0 0 Z " fill="#6E52D5" transform="translate(231,325)"/>
<path d="M0 0 C0.66 0.33 1.32 0.66 2 1 C1.34 2.98 0.68 4.96 0 7 C-0.804375 7.12375 -1.60875 7.2475 -2.4375 7.375 C-3.7059375 7.684375 -3.7059375 7.684375 -5 8 C-5.33 8.66 -5.66 9.32 -6 10 C-6.66 10 -7.32 10 -8 10 C-7.33333333 8.66666667 -6.66666667 7.33333333 -6 6 C-5.71125 5.29875 -5.4225 4.5975 -5.125 3.875 C-3.72822474 1.54704124 -2.54497983 0.87483682 0 0 Z " fill="#6839E5" transform="translate(414,317)"/>
<path d="M0 0 C3.86979806 3.33968874 4.27722598 7.11504456 5 12 C5.125 15.5625 5.125 15.5625 5 18 C2.92297641 14.88446461 2.25093145 12.60989929 1.375 9 C0.98441406 7.4221875 0.98441406 7.4221875 0.5859375 5.8125 C0 3 0 3 0 0 Z " fill="#382895" transform="translate(13,301)"/>
<path d="M0 0 C6.19518473 0.41588046 11.26689311 1.60251894 17 4 C17 4.66 17 5.32 17 6 C15.10307857 5.54619105 13.20750405 5.08675008 11.3125 4.625 C10.25675781 4.36976563 9.20101563 4.11453125 8.11328125 3.8515625 C5.29593234 3.08094511 2.68331675 2.14501457 0 1 C0 0.67 0 0.34 0 0 Z " fill="#7256D4" transform="translate(340,222)"/>
<path d="M0 0 C0.66 0 1.32 0 2 0 C1.35177251 3.50042844 0.19256847 6.1809834 -2 9 C-4.609375 9.140625 -4.609375 9.140625 -7 9 C-6.02180976 7.68677212 -5.0424189 6.37443848 -4.0625 5.0625 C-3.51722656 4.33160156 -2.97195312 3.60070312 -2.41015625 2.84765625 C-1 1 -1 1 0 0 Z " fill="#3D34A9" transform="translate(78,75)"/>
<path d="M0 0 C0.78375 0.04125 1.5675 0.0825 2.375 0.125 C2.705 2.435 3.035 4.745 3.375 7.125 C2.055 6.465 0.735 5.805 -0.625 5.125 C-0.625 4.465 -0.625 3.805 -0.625 3.125 C-1.945 2.795 -3.265 2.465 -4.625 2.125 C-2.625 0.125 -2.625 0.125 0 0 Z " fill="#4931B1" transform="translate(97.625,433.875)"/>
<path d="M0 0 C4 3 8 6 12 9 C11.67 9.66 11.34 10.32 11 11 C3.21598272 8.06263499 3.21598272 8.06263499 1 4 C0.64436068 2.67244226 0.30761001 1.33950176 0 0 Z " fill="#3B2B96" transform="translate(397,54)"/>
<path d="M0 0 C3.63 1.98 7.26 3.96 11 6 C10.01 7.485 10.01 7.485 9 9 C7 8 5 7 3 6 C3 5.01 3 4.02 3 3 C2.01 3 1.02 3 0 3 C0 2.01 0 1.02 0 0 Z " fill="#4A34B2" transform="translate(373,38)"/>
<path d="M0 0 C0.66 0 1.32 0 2 0 C3.19088986 5.38027025 4.2919519 10.45291384 4 16 C0.78235549 11.17353323 -0.36261136 5.80178176 0 0 Z " fill="#6B56D4" transform="translate(132,253)"/>
<path d="M0 0 C5.69139902 1.09698167 10.74567937 2.54053077 16 5 C16 5.33 16 5.66 16 6 C13.03 5.67 10.06 5.34 7 5 C7 4.34 7 3.68 7 3 C5.35 3 3.7 3 2 3 C2 2.34 2 1.68 2 1 C1.34 0.67 0.68 0.34 0 0 Z " fill="#3C2B99" transform="translate(324,16)"/>
<path d="M0 0 C1.05902319 2.7534603 0.97095435 4.12938515 0.3125 7.0625 C-1.07097062 10.15883902 -2.13597554 11.28158532 -5 13 C-5.66 12.34 -6.32 11.68 -7 11 C-6.21625 10.113125 -5.4325 9.22625 -4.625 8.3125 C-2.42843009 5.69279481 -1.06209659 3.28284399 0 0 Z " fill="#7651DA" transform="translate(417,307)"/>
<path d="M0 0 C1.875 0.1875 1.875 0.1875 4 1 C5.25 3.5625 5.25 3.5625 6 6 C6.66 6 7.32 6 8 6 C8 6.99 8 7.98 8 9 C8.66 9 9.32 9 10 9 C9.67 9.99 9.34 10.98 9 12 C8.443125 11.29875 7.88625 10.5975 7.3125 9.875 C5.64909978 7.80698891 3.9655467 5.77346534 2.25 3.75 C0 1 0 1 0 0 Z " fill="#6F4DD4" transform="translate(409,249)"/>
<path d="M0 0 C-0.33 0.66 -0.66 1.32 -1 2 C-2.99883869 2.34022786 -4.99890722 2.67329097 -7 3 C-7.66 3.66 -8.32 4.32 -9 5 C-10.98821313 5.39764263 -12.98944339 5.73775349 -15 6 C-10.09817422 0.74804381 -7.24200793 -0.27853877 0 0 Z " fill="#6B55DA" transform="translate(167,195)"/>
<path d="M0 0 C1.33332095 2.6666419 0.67102033 4.16680303 0 7 C-0.66 7 -1.32 7 -2 7 C-2.33 8.65 -2.66 10.3 -3 12 C-3.99 12.33 -4.98 12.66 -6 13 C-5.34215037 9.70319035 -4.10579427 7.15882078 -2.4375 4.25 C-1.98246094 3.45078125 -1.52742188 2.6515625 -1.05859375 1.828125 C-0.53458984 0.92320313 -0.53458984 0.92320313 0 0 Z " fill="#362E99" transform="translate(43,121)"/>
<path d="M0 0 C3.63 0 7.26 0 11 0 C10.34 1.32 9.68 2.64 9 4 C9.99 4 10.98 4 12 4 C11.67 4.66 11.34 5.32 11 6 C7.37 4.35 3.74 2.7 0 1 C0 0.67 0 0.34 0 0 Z " fill="#492CA2" transform="translate(140,466)"/>
<path d="M0 0 C0.66 0 1.32 0 2 0 C1.67 2.31 1.34 4.62 1 7 C0.34 7 -0.32 7 -1 7 C-1.66 8.65 -2.32 10.3 -3 12 C-3.33 12 -3.66 12 -4 12 C-4 10.35 -4 8.7 -4 7 C-3.34 7 -2.68 7 -2 7 C-2 6.01 -2 5.02 -2 4 C-1.34 4 -0.68 4 0 4 C0 2.68 0 1.36 0 0 Z " fill="#562FB0" transform="translate(451,378)"/>
<path d="M0 0 C0 1.65 0 3.3 0 5 C-0.33 5 -0.66 5 -1 5 C-1.33 6.98 -1.66 8.96 -2 11 C-2.66 10.67 -3.32 10.34 -4 10 C-4 9.01 -4 8.02 -4 7 C-4.66 6.67 -5.32 6.34 -6 6 C-5.67 5.34 -5.34 4.68 -5 4 C-4.34 4 -3.68 4 -3 4 C-3 3.01 -3 2.02 -3 1 C-1 0 -1 0 0 0 Z " fill="#6C3AE3" transform="translate(479,321)"/>
<path d="M0 0 C0.33 0 0.66 0 1 0 C2.36082474 6.43298969 2.36082474 6.43298969 0.6875 9.0625 C-0.1478125 10.0215625 -0.1478125 10.0215625 -1 11 C-1.72351427 12.98014432 -2.40265389 14.97821315 -3 17 C-4.29065057 13.1280483 -3.22324098 10.55767399 -2.0625 6.8125 C-1.76956055 5.83120117 -1.76956055 5.83120117 -1.47070312 4.83007812 C-0.98817437 3.21772593 -0.49509795 1.60853711 0 0 Z " fill="#362B92" transform="translate(19,174)"/>
<path d="M0 0 C3.96 0 7.92 0 12 0 C12 0.99 12 1.98 12 3 C12.66 3.33 13.32 3.66 14 4 C12.41532272 3.71572583 10.8322943 3.42225182 9.25 3.125 C7.92742187 2.88136719 7.92742187 2.88136719 6.578125 2.6328125 C4 2 4 2 0 0 Z " fill="#442796" transform="translate(176,481)"/>
<path d="M0 0 C0.66 0 1.32 0 2 0 C2.33 2.31 2.66 4.62 3 7 C0.03 6.01 -2.94 5.02 -6 4 C-5.67 3.34 -5.34 2.68 -5 2 C-3.35 2.33 -1.7 2.66 0 3 C0 2.01 0 1.02 0 0 Z " fill="#6F4CDA" transform="translate(394,234)"/>
<path d="M0 0 C0.66 0 1.32 0 2 0 C2 0.66 2 1.32 2 2 C2.99 2 3.98 2 5 2 C5.33 3.98 5.66 5.96 6 8 C6.66 8 7.32 8 8 8 C8.33 9.98 8.66 11.96 9 14 C5.25876024 9.7045025 2.65848126 5.00099548 0 0 Z " fill="#674FCF" transform="translate(251,180)"/>
<path d="M0 0 C2.31 0 4.62 0 7 0 C4.42215154 2.64752004 2.08351902 4.94432065 -1 7 C-0.67 4.69 -0.34 2.38 0 0 Z " fill="#674CD7" transform="translate(293,161)"/>
<path d="M0 0 C-4.47718792 2.98479194 -8.63824093 4 -14 4 C-14 3.34 -14 2.68 -14 2 C-9.126739 0.4087311 -5.19209404 -0.21192221 0 0 Z " fill="#4E2AA1" transform="translate(326,480)"/>
<path d="M0 0 C0.33 0 0.66 0 1 0 C1.3125 2.75 1.3125 2.75 1 6 C-1.5 8.375 -1.5 8.375 -4 10 C-4.33 8.35 -4.66 6.7 -5 5 C-3.68 5 -2.36 5 -1 5 C-0.67 3.35 -0.34 1.7 0 0 Z " fill="#582FB7" transform="translate(430,406)"/>
<path d="M0 0 C3.10190545 4.65285818 4.33846504 9.41532676 4 15 C3.01 14.34 2.02 13.68 1 13 C0.48828125 9.9609375 0.48828125 9.9609375 0.3125 6.375 C0.24675781 5.18648437 0.18101562 3.99796875 0.11328125 2.7734375 C0.07589844 1.85820312 0.03851563 0.94296875 0 0 Z " fill="#40268B" transform="translate(480,175)"/>
<path d="M0 0 C0.66 0 1.32 0 2 0 C1.65120368 3.25543229 0.97866739 4.01873107 -1.5625 6.25 C-2.366875 6.8275 -3.17125 7.405 -4 8 C-4.33 6.35 -4.66 4.7 -5 3 C-4.01 3 -3.02 3 -2 3 C-1.34 2.01 -0.68 1.02 0 0 Z " fill="#5D33C1" transform="translate(422,416)"/>
<path d="M0 0 C0.33 0.66 0.66 1.32 1 2 C0.00390625 4.1640625 0.00390625 4.1640625 -1.4375 6.625 C-1.91058594 7.44226563 -2.38367188 8.25953125 -2.87109375 9.1015625 C-3.24363281 9.72804688 -3.61617188 10.35453125 -4 11 C-4.33 11 -4.66 11 -5 11 C-5.3125 8.3125 -5.3125 8.3125 -5 5 C-2.5 2.125 -2.5 2.125 0 0 Z " fill="#492897" transform="translate(463,362)"/>
<path d="M0 0 C0.66 0.33 1.32 0.66 2 1 C-2.18461538 6.78461538 -2.18461538 6.78461538 -6.3125 7.875 C-7.6428125 7.936875 -7.6428125 7.936875 -9 8 C-6.14723863 5.06799526 -3.34920216 2.35684596 0 0 Z " fill="#765DD3" transform="translate(241,316)"/>
<path d="M0 0 C1.875 0.125 1.875 0.125 4 1 C5.25 4.0625 5.25 4.0625 6 7 C6.66 7 7.32 7 8 7 C7.67 8.32 7.34 9.64 7 11 C4.23455278 7.54319097 2.15078722 3.85658398 0 0 Z " fill="#6E4FD4" transform="translate(407,172)"/>
<path d="M0 0 C0.66 0 1.32 0 2 0 C1.82374165 2.37948772 1.30280227 3.70225849 -0.40234375 5.37890625 C-1.90649092 6.62115486 -3.45129851 7.81376056 -5 9 C-5.33 8.01 -5.66 7.02 -6 6 C-4 4 -2 2 0 0 Z " fill="#463AC7" transform="translate(59,100)"/>
<path d="M0 0 C1.32 0 2.64 0 4 0 C5.32 2.64 6.64 5.28 8 8 C7.01 8 6.02 8 5 8 C4.34 6.35 3.68 4.7 3 3 C2.34 3 1.68 3 1 3 C0.67 2.01 0.34 1.02 0 0 Z " fill="#3C2991" transform="translate(45,380)"/>
<path d="M0 0 C1.32 0.66 2.64 1.32 4 2 C3.04882866 3.1725131 2.08882991 4.33787015 1.125 5.5 C0.59132812 6.1496875 0.05765625 6.799375 -0.4921875 7.46875 C-0.98976562 7.9740625 -1.48734375 8.479375 -2 9 C-2.66 9 -3.32 9 -4 9 C-4 8.34 -4 7.68 -4 7 C-3.34 7 -2.68 7 -2 7 C-2 6.34 -2 5.68 -2 5 C-1.34 5 -0.68 5 0 5 C0 3.35 0 1.7 0 0 Z " fill="#6A4FD8" transform="translate(215,280)"/>
<path d="M0 0 C0.66 1.32 1.32 2.64 2 4 C-0.64 6.31 -3.28 8.62 -6 11 C-6.66 10.67 -7.32 10.34 -8 10 C-7.50628906 9.44570313 -7.01257813 8.89140625 -6.50390625 8.3203125 C-5.86324219 7.59585937 -5.22257813 6.87140625 -4.5625 6.125 C-3.92441406 5.40570313 -3.28632813 4.68640625 -2.62890625 3.9453125 C-0.94985535 2.09249509 -0.94985535 2.09249509 0 0 Z " fill="#ECE3FD" transform="translate(221,278)"/>
<path d="M0 0 C-0.95729916 1.12588014 -1.91587895 2.2506715 -2.875 3.375 C-3.40867187 4.00148437 -3.94234375 4.62796875 -4.4921875 5.2734375 C-5.61432007 6.55836651 -6.79371975 7.79371975 -8 9 C-7.51421457 5.87709365 -7.0013988 3.00419641 -6 0 C-3 -1 -3 -1 0 0 Z " fill="#6850CF" transform="translate(291,170)"/>
<path d="M0 0 C-1.5625 2 -1.5625 2 -4 4 C-7.75 4.25 -7.75 4.25 -11 4 C-9.71264403 1.42528807 -8.71510189 1.29583343 -6.0625 0.3125 C-5.35222656 0.04050781 -4.64195312 -0.23148438 -3.91015625 -0.51171875 C-2 -1 -2 -1 0 0 Z " fill="#362D9C" transform="translate(157,24)"/>
<path d="M0 0 C2.475 0.99 2.475 0.99 5 2 C4.34 3.98 3.68 5.96 3 8 C2.34 7.67 1.68 7.34 1 7 C1 6.01 1 5.02 1 4 C0.34 3.67 -0.32 3.34 -1 3 C-0.67 2.01 -0.34 1.02 0 0 Z " fill="#6C38E8" transform="translate(457,360)"/>
<path d="M0 0 C0.8125 1.6875 0.8125 1.6875 1 4 C-1.1875 6.8125 -1.1875 6.8125 -4 9 C-6.3125 8.8125 -6.3125 8.8125 -8 8 C-4.25 5 -4.25 5 -2 5 C-1.34 3.35 -0.68 1.7 0 0 Z " fill="#E7D9FC" transform="translate(372,294)"/>
<path d="M0 0 C0.763125 0.20625 1.52625 0.4125 2.3125 0.625 C-0.54056797 2.94972205 -3.22824837 4.3758258 -6.6875 5.625 C-6.375 3.75 -6.375 3.75 -5.6875 1.625 C-2.6875 -0.375 -2.6875 -0.375 0 0 Z " fill="#664AD7" transform="translate(306.6875,155.375)"/>
<path d="M0 0 C4.30840713 1.07710178 7.63576723 2.03947516 11 5 C8.69 5.33 6.38 5.66 4 6 C4 5.01 4 4.02 4 3 C3.01 3 2.02 3 1 3 C0.67 2.01 0.34 1.02 0 0 Z " fill="#3F2DA5" transform="translate(341,22)"/>
<path d="M0 0 C-1.28524261 0.86380259 -2.57842419 1.71580369 -3.875 2.5625 C-4.59429687 3.03816406 -5.31359375 3.51382812 -6.0546875 4.00390625 C-6.69664062 4.33261719 -7.33859375 4.66132813 -8 5 C-8.66 4.67 -9.32 4.34 -10 4 C-9.25 2.0625 -9.25 2.0625 -8 0 C-4.99756227 -1.30105635 -3.07011437 -0.84139118 0 0 Z " fill="#4F2AA1" transform="translate(372,460)"/>
<path d="M0 0 C1.32 0.99 2.64 1.98 4 3 C-0.75 7 -0.75 7 -3 7 C-3 5.35 -3 3.7 -3 2 C-2.67 2.66 -2.34 3.32 -2 4 C-1.34 4 -0.68 4 0 4 C-0.33 3.01 -0.66 2.02 -1 1 C-0.67 0.67 -0.34 0.34 0 0 Z " fill="#542DAF" transform="translate(388,444)"/>
<path d="M0 0 C4.97093824 0.41153737 9.44508386 0.79600832 14 3 C14 3.33 14 3.66 14 4 C11.69 4 9.38 4 7 4 C7 3.34 7 2.68 7 2 C4.69 1.67 2.38 1.34 0 1 C0 0.67 0 0.34 0 0 Z " fill="#6A56D1" transform="translate(186,193)"/>
<path d="M0 0 C3.44216672 2.6598561 3.99504674 5.90288286 5 10 C4.34 10 3.68 10 3 10 C0.4606772 6.58168085 -0.3636198 4.24223102 0 0 Z " fill="#E5DBFD" transform="translate(257,191)"/>
<path d="M0 0 C1 3 1 3 -0.125 5.5 C-2.16131229 8.21508305 -4.00479488 9.46192169 -7 11 C-5.22054913 6.95579349 -2.60470327 3.53921513 0 0 Z " fill="#2D2686" transform="translate(63,92)"/>
<path d="M0 0 C-0.33 0.99 -0.66 1.98 -1 3 C-3.64 2.67 -6.28 2.34 -9 2 C-9 1.34 -9 0.68 -9 0 C-5.93109813 -1.53445094 -3.29905734 -0.54984289 0 0 Z " fill="#503AC6" transform="translate(356,28)"/>
<path d="M0 0 C2.08379509 3.84700632 3.49686624 7.90054429 5 12 C4.34 12 3.68 12 3 12 C1 9 1 9 1 5 C0.34 5 -0.32 5 -1 5 C-0.67 3.35 -0.34 1.7 0 0 Z " fill="#795DD6" transform="translate(276,299)"/>
<path d="M0 0 C1.46015291 0.28241641 2.91809793 0.57626614 4.375 0.875 C5.18710938 1.03742188 5.99921875 1.19984375 6.8359375 1.3671875 C9 2 9 2 11 4 C9.4375 4.75 9.4375 4.75 7 5 C4.49713591 3.86915563 2.32992278 2.47860484 0 1 C0 0.67 0 0.34 0 0 Z " fill="#6D56D0" transform="translate(155,291)"/>
<path d="M0 0 C0.33 0 0.66 0 1 0 C1.34833144 4.87664009 0.41685712 7.77050005 -2 12 C-3.12377697 8.69564916 -2.89554742 6.9493138 -1.5625 3.75 C-1.27503906 3.04359375 -0.98757812 2.3371875 -0.69140625 1.609375 C-0.46324219 1.07828125 -0.23507813 0.5471875 0 0 Z " fill="#6B58D1" transform="translate(136,219)"/>
<path d="M0 0 C2.62187494 1.04874998 3.79371361 1.64931313 5.25 4.125 C5.4975 4.74375 5.745 5.3625 6 6 C5.34 6.66 4.68 7.32 4 8 C1.10067643 5.60490662 0.49831724 3.68754757 0 0 Z " fill="#6B4CD8" transform="translate(363,192)"/>
<path d="M0 0 C3.3 0 6.6 0 10 0 C7.6870518 2.3129482 6.52095125 2.49580975 3.375 3.125 C2.55773437 3.29257812 1.74046875 3.46015625 0.8984375 3.6328125 C-0.04128906 3.81457031 -0.04128906 3.81457031 -1 4 C-0.67 2.68 -0.34 1.36 0 0 Z " fill="#49259F" transform="translate(327,476)"/>
<path d="M0 0 C1.32 0.33 2.64 0.66 4 1 C0.535 3.97 0.535 3.97 -3 7 C-3.33 6.01 -3.66 5.02 -4 4 C-3.01 4 -2.02 4 -1 4 C-0.67 2.68 -0.34 1.36 0 0 Z " fill="#5733AC" transform="translate(413,425)"/>
<path d="M0 0 C0.66 0 1.32 0 2 0 C3.75 2.25 3.75 2.25 5 5 C4.1875 7.3125 4.1875 7.3125 3 9 C0 3.375 0 3.375 0 0 Z " fill="#3B299E" transform="translate(26,342)"/>
<path d="M0 0 C1.32 1.32 2.64 2.64 4 4 C3.67 4.99 3.34 5.98 3 7 C1.68 6.67 0.36 6.34 -1 6 C-0.67 4.02 -0.34 2.04 0 0 Z " fill="#6948D8" transform="translate(281,312)"/>
<path d="M0 0 C2 2 2 2 2.5 4.5625 C2.665 5.366875 2.83 6.17125 3 7 C3.66 7.33 4.32 7.66 5 8 C4.67 8.66 4.34 9.32 4 10 C-0.875 5.375 -0.875 5.375 -2 2 C-1.34 2 -0.68 2 0 2 C0 1.34 0 0.68 0 0 Z " fill="#6C4AD4" transform="translate(327,291)"/>
<path d="M0 0 C2.9375 0.8125 2.9375 0.8125 6 2 C6.33 2.99 6.66 3.98 7 5 C7.66 5.66 8.32 6.32 9 7 C6.62051228 6.82374165 5.29774151 6.30280227 3.62109375 4.59765625 C2.37884514 3.09350908 1.18623944 1.54870149 0 0 Z " fill="#6148CB" transform="translate(144,282)"/>
<path d="M0 0 C2.64465038 3.1254959 3.84414715 6.08788267 5 10 C2.5 8.9375 2.5 8.9375 0 7 C-0.3125 3.3125 -0.3125 3.3125 0 0 Z " fill="#7861DA" transform="translate(277,224)"/>
<path d="M0 0 C0.66 0 1.32 0 2 0 C2 0.66 2 1.32 2 2 C2.66 2.33 3.32 2.66 4 3 C3.67 3.66 3.34 4.32 3 5 C1.35 5 -0.3 5 -2 5 C-1.34 3.35 -0.68 1.7 0 0 Z " fill="#6C37DF" transform="translate(345,466)"/>
<path d="M0 0 C1.67542976 0.28604898 3.34385343 0.61781233 5 1 C4.01 1.495 4.01 1.495 3 2 C3 2.66 3 3.32 3 4 C1.02 4.99 1.02 4.99 -1 6 C-1.042721 4.33388095 -1.04063832 2.66617115 -1 1 C-0.67 0.67 -0.34 0.34 0 0 Z " fill="#532CB2" transform="translate(400,435)"/>
<path d="M0 0 C0.33 0 0.66 0 1 0 C1 2.64 1 5.28 1 8 C0.01 7.67 -0.98 7.34 -2 7 C-2 5.35 -2 3.7 -2 2 C-1.34 2 -0.68 2 0 2 C0 1.34 0 0.68 0 0 Z " fill="#6A39E6" transform="translate(486,286)"/>
<path d="M0 0 C1.125 3.75 1.125 3.75 0 6 C-0.66 6 -1.32 6 -2 6 C-2.33 7.32 -2.66 8.64 -3 10 C-4 7 -4 7 -3.22265625 5.17578125 C-2.1484375 3.45052083 -1.07421875 1.72526042 0 0 Z " fill="#302790" transform="translate(36,134)"/>
<path d="M0 0 C1.37562854 1.28965176 2.70766393 2.62689293 4 4 C4 4.66 4 5.32 4 6 C2.68 6.33 1.36 6.66 0 7 C-1.33332095 4.3333581 -0.67102033 2.83319697 0 0 Z " fill="#4A33AA" transform="translate(433,89)"/>
<path d="M0 0 C2.31 0 4.62 0 7 0 C7 1.65 7 3.3 7 5 C4.11562221 3.70700306 2.12780579 2.34058637 0 0 Z " fill="#4C34AB" transform="translate(105,444)"/>
<path d="M0 0 C-0.33 1.32 -0.66 2.64 -1 4 C-2.32 4 -3.64 4 -5 4 C-5 3.01 -5 2.02 -5 1 C-2 0 -2 0 0 0 Z " fill="#4833B8" transform="translate(36,352)"/>
<path d="M0 0 C0.66 0 1.32 0 2 0 C2.103125 0.639375 2.20625 1.27875 2.3125 1.9375 C2.539375 2.618125 2.76625 3.29875 3 4 C3.99 4.33 4.98 4.66 6 5 C5.01 5.495 5.01 5.495 4 6 C3.67 6.99 3.34 7.98 3 9 C2.01 6.03 1.02 3.06 0 0 Z " fill="#6A48D1" transform="translate(321,284)"/>
<path d="M0 0 C3.37503669 1.1858237 5.64722731 2.27573689 8 5 C7.67 5.66 7.34 6.32 7 7 C6.01 6.34 5.02 5.68 4 5 C4 4.34 4 3.68 4 3 C2.68 2.67 1.36 2.34 0 2 C0 1.34 0 0.68 0 0 Z " fill="#6D4FCE" transform="translate(363,273)"/>
<path d="M0 0 C1.55913346 3.11826692 0.66585225 5.67073874 0 9 C-0.99 9.495 -0.99 9.495 -2 10 C-2.25 3.375 -2.25 3.375 0 0 Z " fill="#5F48D7" transform="translate(139,214)"/>
<path d="M0 0 C2.12508244 3.18762365 2.5020163 5.26512223 3 9 C2.01 9.33 1.02 9.66 0 10 C0 6.7 0 3.4 0 0 Z " fill="#43289C" transform="translate(477,166)"/>
<path d="M0 0 C-1.0975223 2.99324263 -1.67682892 3.84610901 -4.625 5.25 C-5.40875 5.4975 -6.1925 5.745 -7 6 C-7 5.01 -7 4.02 -7 3 C-4.46815512 0.64276511 -3.52809907 0 0 0 Z " fill="#4B40D7" transform="translate(103,57)"/>
<path d="M0 0 C1.11375 0.598125 2.2275 1.19625 3.375 1.8125 C4.00148438 2.14894531 4.62796875 2.48539063 5.2734375 2.83203125 C7 4 7 4 9 7 C8.01 7.495 8.01 7.495 7 8 C6.34 7.34 5.68 6.68 5 6 C4.13375 5.34 3.2675 4.68 2.375 4 C1.59125 3.34 0.8075 2.68 0 2 C0 1.34 0 0.68 0 0 Z " fill="#3B2995" transform="translate(387,47)"/>
<path d="M0 0 C0.66 0.33 1.32 0.66 2 1 C0.8125 3 0.8125 3 -1 5 C-3.6875 5.25 -3.6875 5.25 -6 5 C-2.25 1.125 -2.25 1.125 0 0 Z " fill="#372D9B" transform="translate(132,34)"/>
<path d="M0 0 C2.31 0.33 4.62 0.66 7 1 C7.33 2.32 7.66 3.64 8 5 C5.36 3.68 2.72 2.36 0 1 C0 0.67 0 0.34 0 0 Z " fill="#3E2495" transform="translate(119,454)"/>
<path d="M0 0 C2.97 0.495 2.97 0.495 6 1 C6.33 2.65 6.66 4.3 7 6 C1.125 2.25 1.125 2.25 0 0 Z " fill="#35237F" transform="translate(84,427)"/>
<path d="M0 0 C0.99 0 1.98 0 3 0 C3 0.99 3 1.98 3 3 C2.01 3 1.02 3 0 3 C0 3.99 0 4.98 0 6 C-0.66 6 -1.32 6 -2 6 C-1.125 1.125 -1.125 1.125 0 0 Z " fill="#6C38E7" transform="translate(409,426)"/>
<path d="M0 0 C0.66 0 1.32 0 2 0 C2 2.31 2 4.62 2 7 C1.34 6.67 0.68 6.34 0 6 C0 5.34 0 4.68 0 4 C-0.66 4 -1.32 4 -2 4 C-2 3.34 -2 2.68 -2 2 C-1.34 2 -0.68 2 0 2 C0 1.34 0 0.68 0 0 Z " fill="#422DA8" transform="translate(82,420)"/>
<path d="M0 0 C0.66 0 1.32 0 2 0 C2 0.99 2 1.98 2 3 C2.66 3 3.32 3 4 3 C4 4.98 4 6.96 4 9 C2 8 2 8 1.3671875 6.15234375 C1.20476563 5.42144531 1.04234375 4.69054687 0.875 3.9375 C0.70742188 3.20402344 0.53984375 2.47054688 0.3671875 1.71484375 C0.24601562 1.14894531 0.12484375 0.58304687 0 0 Z " fill="#4832AF" transform="translate(37,363)"/>
<path d="M0 0 C0.99 0.33 1.98 0.66 3 1 C-2.75 5 -2.75 5 -5 5 C-4.67 4.01 -4.34 3.02 -4 2 C-3.34 2.33 -2.68 2.66 -2 3 C-2 2.34 -2 1.68 -2 1 C-1.34 0.67 -0.68 0.34 0 0 Z " fill="#714FD3" transform="translate(365,299)"/>
<path d="M0 0 C2.475 0.495 2.475 0.495 5 1 C5 3.31 5 5.62 5 8 C2.74754119 5.31158141 1.11786042 3.35358125 0 0 Z " fill="#664FD1" transform="translate(137,272)"/>
<path d="M0 0 C0.66 0.99 1.32 1.98 2 3 C0.02 5.97 0.02 5.97 -2 9 C-2.33 8.34 -2.66 7.68 -3 7 C-2.06421005 4.64018187 -1.06652192 2.30368736 0 0 Z " fill="#E6DEFC" transform="translate(282,180)"/>
<path d="M0 0 C0.33 0.99 0.66 1.98 1 3 C0.34 3 -0.32 3 -1 3 C-1.33 4.65 -1.66 6.3 -2 8 C-2.66 8 -3.32 8 -4 8 C-3.40138258 5.64828869 -2.73075648 3.3140622 -2 1 C-1.34 0.67 -0.68 0.34 0 0 Z " fill="#3930A2" transform="translate(27,157)"/>
<path d="M0 0 C2.40072955 2.88087546 4.47291037 5.56404834 6 9 C3.5625 7.875 3.5625 7.875 1 6 C0.1875 2.8125 0.1875 2.8125 0 0 Z " fill="#3E2A8B" transform="translate(444,103)"/>
<path d="M0 0 C0.99 0.33 1.98 0.66 3 1 C2.34 2.32 1.68 3.64 1 5 C-0.32 4.67 -1.64 4.34 -3 4 C-3 3.34 -3 2.68 -3 2 C-2.01 2 -1.02 2 0 2 C0 1.34 0 0.68 0 0 Z " fill="#4C40E2" transform="translate(109,51)"/>
<path d="" fill="#000000" transform="translate(0,0)"/>
<path d="" fill="#000000" transform="translate(0,0)"/>
<path d="" fill="#000000" transform="translate(0,0)"/>
<path d="" fill="#000000" transform="translate(0,0)"/>
<path d="" fill="#000000" transform="translate(0,0)"/>
<path d="" fill="#000000" transform="translate(0,0)"/>
<path d="" fill="#000000" transform="translate(0,0)"/>
<path d="" fill="#000000" transform="translate(0,0)"/>
<path d="" fill="#000000" transform="translate(0,0)"/>
<path d="" fill="#000000" transform="translate(0,0)"/>
<path d="" fill="#000000" transform="translate(0,0)"/>
<path d="" fill="#000000" transform="translate(0,0)"/>
<path d="" fill="#000000" transform="translate(0,0)"/>
<path d="" fill="#000000" transform="translate(0,0)"/>
<path d="" fill="#000000" transform="translate(0,0)"/>
<path d="" fill="#000000" transform="translate(0,0)"/>
<path d="" fill="#000000" transform="translate(0,0)"/>
<path d="" fill="#000000" transform="translate(0,0)"/>
<path d="" fill="#000000" transform="translate(0,0)"/>
</svg>
